<?xml version="1.0" encoding="UTF-8"?>
<!DOCTYPE svg PUBLIC "-//W3C//DTD SVG 1.1//EN" "http://www.w3.org/Graphics/SVG/1.1/DTD/svg11.dtd">
<!-- Creator: CorelDRAW 2018 (64 Bit) -->
<svg xmlns="http://www.w3.org/2000/svg" xml:space="preserve" width="89.3732mm" height="24.9753mm" version="1.1" shape-rendering="geometricPrecision" text-rendering="geometricPrecision" image-rendering="optimizeQuality" fill-rule="evenodd" clip-rule="evenodd"
viewBox="0 0 53289.4 14891.7"
 xmlns:xlink="http://www.w3.org/1999/xlink">
 <g id="Layer_x0020_1">
  <metadata id="CorelCorpID_0Corel-Layer"/>
  <g>
   <path fill="#FEFEFE" d="M33543.3 9078.1c-120.3,555.4 -309.3,738.6 -521.1,738.6 -108.9,-0.2 -257.6,-34.3 -349.2,-80.2 -28.7,39.7 -57.2,120.3 -57.2,183.3 0,102.9 143,171.7 417.8,171.7 377.9,0 612.6,-229 784.3,-927.4l755.8 -3041.1c-320.7,0 -320.7,0 -337.8,97.3l-383.5 1580c-85.7,406.4 -114.8,632.4 -154.5,893.2 -54,-338.3 -80.1,-497.9 -166.1,-887.2l-429.4 -1683.3c-320.4,0 -326.5,0 -303.5,97.3l744.4 2857.7z"/>
   <path id="1" fill="#FEFEFE" fill-rule="nonzero" d="M33022 9952.1l0.5 -270.7 -0.2 0 12.2 -0.3 11.8 -1 11.7 -1.7 11.3 -2.3 10.9 -2.9 11.1 -3.8 10.9 -4.4 11 -5.4 11.4 -6.4 11.4 -7.3 11.4 -8.4 12 -10 12.3 -11.3 12.5 -12.8 12.7 -14.3 12.9 -16 13.1 -17.8 13.2 -19.6 13.2 -21.5 13.3 -23.3 13.2 -25.3 13.2 -27.2 13.2 -29.4 12.9 -31.4 12.8 -33.5 12.6 -35.5 12.4 -37.7 12.2 -39.9 11.9 -42 11.6 -44.4 11.4 -46.6 10.9 -48.7 264.6 57.2 -12 53.2 -12.5 51.1 -12.9 49.1 -13.4 47.2 -13.8 45.3 -14.3 43.5 -14.8 41.7 -15.3 39.9 -15.8 38.2 -16.3 36.4 -16.9 35 -17.5 33.3 -17.9 31.7 -18.7 30.2 -19.3 28.6 -19.9 27.1 -20.6 25.6 -21.4 24.1 -22.1 22.5 -22.8 20.9 -23.5 19.4 -24.4 17.9 -25 16.2 -25.5 14.3 -26.2 12.7 -26.7 11 -27 9.1 -27.4 7.5 -27.4 5.6 -27.2 3.9 -27.4 2.3 -27.4 0.8 -0.2 0zm0.2 0l-0.2 0 0 0 0.2 0zm-239.5 -136.2l-219.3 -158.7 170.4 -41.6 6.1 3 6.5 3 7.4 3.2 7.2 3.1 7.8 3 8.3 3.2 8.5 3 8.5 3 9.2 3 9.5 3 9 2.7 9.8 2.8 9.8 2.7 9.7 2.4 10.1 2.6 10.2 2.4 10 2.2 10.1 2.1 10.5 2.1 10.1 1.9 10.1 1.7 10.1 1.7 9.7 1.4 9.7 1.3 9.9 1.2 9.4 1 9.2 0.8 9.1 0.8 8.8 0.5 8.6 0.5 7.9 0.2 7.9 0.1 -0.5 270.7 -12.8 -0.1 -13.2 -0.4 -12.9 -0.6 -13 -0.8 -13.1 -1 -13.2 -1.2 -13.3 -1.5 -13 -1.6 -13.5 -1.8 -13.5 -2 -13.2 -2.1 -13.4 -2.3 -13.3 -2.5 -13 -2.6 -13.4 -2.8 -13.4 -3 -13.1 -3.1 -13 -3.2 -13.4 -3.5 -13 -3.6 -12.7 -3.6 -13.2 -3.9 -12.4 -4 -12.4 -4.1 -12.7 -4.4 -12.3 -4.5 -11.9 -4.5 -12.1 -4.8 -12 -5 -11.3 -5 -11.6 -5.3 -11.4 -5.6 170.4 -41.6zm-219.3 -158.7l67.5 -93.3 102.9 51.6 -170.4 41.6zm187.8 262.7l-270.7 0 0 0 0.1 -9.3 0.4 -10 0.7 -9.3 0.8 -9.3 1.1 -9.3 1.3 -9.2 1.4 -8.7 1.5 -8.8 1.8 -9.4 1.7 -8.2 1.9 -8.6 2.2 -8.9 2.2 -8.3 2.3 -8.2 2.4 -8.2 2.7 -8.8 2.7 -7.9 2.7 -7.8 3.1 -8.5 3.2 -8.2 3.2 -7.6 3.1 -7.4 3.5 -7.9 3.2 -7 3.5 -7.2 4.1 -8.2 3.9 -7.2 4.1 -7.2 4.4 -7.4 4.1 -6.4 4.7 -7.2 5.1 -7.3 219.3 158.7 -0.2 0.3 -0.7 1.1 -1.3 2.1 -1 1.6 -1.2 2.2 -1.3 2.4 -1 1.9 -1.6 3.3 -1.8 3.8 -1.4 3.1 -1.7 3.9 -1.6 4 -1.4 3.5 -1.3 3.5 -1.5 4.4 -1.5 4.4 -1.2 3.7 -1.3 4.4 -1.3 4.5 -1.1 4.3 -1 4 -1 4.2 -1 4.6 -0.7 3.4 -0.7 3.9 -0.7 4.1 -0.4 3.4 -0.4 3.2 -0.3 3.1 -0.2 3 -0.1 2.1 0 2.6 0 0zm282.4 36.4l0 270.7 0 0 -27.5 -0.2 -27 -0.7 -26.2 -1.1 -25.4 -1.5 -25 -2 -24.4 -2.4 -23.4 -2.8 -23 -3.3 -22.5 -3.8 -21.6 -4.2 -21.4 -4.7 -20.6 -5.2 -20.2 -5.7 -19.6 -6.4 -19 -6.9 -18.5 -7.5 -18.1 -8.2 -17.8 -9.1 -16.9 -9.7 -16.3 -10.4 -16.3 -11.9 -15.4 -12.9 -14.7 -13.9 -13.8 -15.1 -12.8 -16.3 -11.6 -17.7 -10.2 -18.8 -8.5 -19.8 -6.8 -20.7 -4.9 -21.3 -2.9 -21.5 -1 -21.5 270.7 0 -0.1 -2.4 -0.4 -2.8 -0.7 -3 -1 -2.9 -1 -2.4 -1 -1.9 -0.9 -1.4 -0.2 -0.3 0.3 0.4 1.1 1 1.8 1.6 2.7 1.9 4.3 2.8 5.3 3 6.1 3.1 7.5 3.4 8.6 3.5 9.7 3.5 10.7 3.4 11.8 3.4 12.8 3.2 13.8 3 15 2.9 15.8 2.7 16.8 2.3 18 2.2 18.5 1.8 19.6 1.5 20.6 1.3 21.5 0.9 22.2 0.5 23.3 0.2 0 0zm653 -824.7l262.7 65.3 0.1 -0.4 -16.8 66.2 -17.4 63.6 -17.7 61.1 -18.3 58.7 -18.8 56.3 -19.5 54.1 -20 51.7 -20.7 49.5 -21.4 47.3 -22.1 45.2 -23.1 43.2 -23.8 41.1 -24.8 39.2 -25.8 37.1 -26.7 35.1 -27.8 33.2 -29 31.2 -30 29.1 -31.1 27.1 -32.1 24.9 -33.4 22.9 -34.3 20.6 -35.2 18.5 -36.1 16.2 -36.8 14.2 -37.6 11.9 -38 9.8 -38.6 7.9 -39.1 6 -39.4 4.1 -40.1 2.4 -40.4 0.8 0 -270.7 29.6 -0.5 28.4 -1.7 27.3 -2.9 26.2 -3.9 24.9 -5.1 24.1 -6.3 23 -7.3 22.2 -8.5 21.6 -9.8 21 -11 20.6 -12.4 20.2 -13.8 20 -15.5 19.8 -17.2 19.6 -19.1 19.4 -20.9 19.3 -23.1 19.3 -25.3 19.1 -27.5 19 -30 18.8 -32.3 18.5 -34.9 18.3 -37.4 18.2 -40 17.8 -42.6 17.6 -45.4 17.2 -47.9 17 -50.8 16.6 -53.5 16.4 -56.3 16 -59.2 15.8 -62 0.1 -0.4zm-0.1 0.4l0.1 -0.4 2.7 -10.7 -2.7 11zm1018.6 -2976.1l-755.8 3041.1 -262.7 -65.3 755.8 -3041.1 131.4 -102.7 131.4 168zm-131.4 -168l173.1 0 -41.7 168 -131.4 -168zm-206.3 264.6l-263.1 -63.8 -1.7 8.4 1.6 -9.5 1.8 -9.8 2.1 -10.4 2.6 -11.3 3.2 -11.9 4.3 -13.6 6 -15.3 7.8 -15.9 10 -16.3 12.3 -16.1 14.6 -15.3 16.9 -13.9 17 -11.1 17.4 -9 17.1 -7 16 -5.2 16.2 -4.2 15.2 -3 15.5 -2.5 15.8 -1.9 15.9 -1.5 16.4 -1.2 16.9 -0.9 18.3 -0.8 19.1 -0.5 20 -0.4 21.3 -0.3 22.8 -0.2 24.3 -0.1 25.8 -0.1 27.5 0 29.2 0 0 270.7 -29.2 0 -27.1 0 -25.2 0.1 -23.5 0.1 -21.6 0.2 -19.9 0.3 -18.4 0.3 -16.3 0.5 -14.4 0.5 -13 0.8 -11.2 0.7 -9.2 0.9 -7.1 0.8 -5.1 0.8 -3.4 0.7 -0.6 0.1 1.1 -0.3 3.7 -1.6 5.5 -2.8 6.6 -4.4 7.9 -6.4 6.7 -7.1 5.4 -7 4.1 -6.6 2.6 -5.2 1.5 -3.7 0.4 -1.1 -0.4 1.6 -0.7 3.2 -1 5.1 -1.3 6.7 -1.5 8.2 -1.7 8.4zm1.7 -8.4l-0.8 4.7 -0.9 3.7 1.7 -8.4zm-648.3 1524.6l383.5 -1580 263.1 63.8 -383.5 1580 -264 -59.9 0.9 -3.9zm-0.9 3.9l0.4 -1.9 0.5 -2 -0.9 3.9zm-155.8 942.5l267.4 -42.7 -267.5 1 3.6 -24.1 3.6 -24.1 3.6 -24 3.6 -23.9 3.6 -23.9 3.6 -24 3.6 -23.9 3.6 -24.1 3.7 -24.4 3.7 -24.5 3.8 -24.6 3.9 -25 4 -25.2 4 -25.5 4.2 -25.9 4.3 -26.3 4.4 -26.8 4.6 -27.2 4.7 -27.8 4.9 -28.4 5.1 -28.9 5.3 -29.6 5.5 -30.2 5.8 -30.9 6 -31.7 6.2 -32.4 6.4 -33.3 6.8 -34.2 7 -35 7.3 -36 7.7 -37 7.9 -37.9 264.9 55.9 -7.8 37.2 -7.5 36.1 -7.2 35.2 -6.9 34.3 -6.6 33.3 -6.3 32.6 -6.1 31.7 -5.8 30.9 -5.5 30.1 -5.4 29.5 -5.2 28.7 -4.9 28.3 -4.8 27.5 -4.6 27 -4.5 26.6 -4.3 26.1 -4.2 25.7 -4.1 25.3 -4 25.1 -3.9 24.7 -3.8 24.4 -3.8 24.3 -3.7 24.1 -3.6 23.9 -3.6 24 -3.6 24 -3.6 24 -3.6 23.9 -3.6 24 -3.6 24.1 -3.6 24.3 -3.8 24.5 -267.5 1zm267.5 -1l-130.8 857.4 -136.7 -856.4 267.5 -1zm-431.1 -874.2l262.4 -66.9 1 4.2 7.9 36.1 7.6 34.8 7.3 33.5 7 32.5 6.7 31.5 6.4 30.4 6.3 29.8 5.9 28.9 5.7 27.8 5.6 27.5 5.3 27 5.1 26.2 5 25.9 4.8 25.5 4.8 25.2 4.7 25 4.5 24.8 4.4 24.7 4.4 24.6 4.4 24.9 4.2 24.9 4.3 25.1 4.3 25.4 4.3 25.7 4.3 26.1 4.4 26.7 4.5 27.3 4.5 27.8 4.6 28.6 4.7 29.4 4.8 30.2 5.1 31.2 -267.4 42.7 -4.9 -31.1 -4.8 -30.2 -4.7 -29.3 -4.6 -28.5 -4.5 -27.6 -4.4 -27 -4.4 -26.3 -4.3 -25.9 -4.2 -25.3 -4.2 -24.8 -4.2 -24.6 -4.2 -24.3 -4.2 -24.1 -4.4 -24.1 -4.3 -24.1 -4.4 -24.1 -4.4 -24.2 -4.7 -24.5 -4.7 -24.9 -4.9 -25.2 -5 -25.7 -5.2 -26.1 -5.4 -26.7 -5.7 -27.6 -5.8 -28.3 -6 -28.9 -6.4 -30.1 -6.6 -30.8 -6.9 -32 -7.2 -33.2 -7.5 -34.4 -7.9 -35.6 1 4.2zm262.4 -66.9l0.6 2.3 0.4 1.9 -1 -4.2zm-429.4 -1683.3l429.4 1683.3 -262.4 66.9 -429.4 -1683.3 131.2 -168.8 131.2 101.9zm-131.2 -101.9l105.2 0 26 101.9 -131.2 -101.9zm-172.5 198.6l-262 68.2 -0.7 -3 -2.4 -10 -2.2 -10.1 -2.3 -11 -2 -12.2 -1.7 -13.1 -1 -15.9 0.2 -17.7 2.4 -20.7 5.7 -23.2 9.7 -23.9 14 -22.8 18.2 -21 19.8 -16.5 19.5 -12.2 18.7 -8.8 17.3 -6.3 16.9 -4.7 15.4 -3.3 15.5 -2.6 15.7 -2 15.9 -1.5 16.3 -1.2 16.8 -0.9 18.2 -0.8 19.2 -0.5 20 -0.4 21.4 -0.3 22.9 -0.2 24.3 -0.1 25.9 -0.1 27.5 0 29.2 0 0 270.7 -29.2 0 -27.1 0 -25.3 0.1 -23.5 0.1 -21.7 0.2 -20 0.3 -18.4 0.3 -16.2 0.5 -14.3 0.5 -12.9 0.8 -10.9 0.7 -8.8 0.9 -6.4 0.8 -4.3 0.7 -2.2 0.4 1.3 -0.4 3.8 -1.4 7.2 -3.5 9.6 -6 11.7 -9.8 11.7 -13.5 8.9 -14.6 6 -14.8 3.3 -13.4 1.2 -10 0.1 -6.1 -0.2 -3.3 0.1 0.4 0.4 2.4 1 4.5 1.4 6.5 1.8 7.6 -0.7 -3zm-262 68.2l0 0.1 -0.7 -3.1 0.7 3zm744.4 2857.7l-744.4 -2857.7 262 -68.2 744.4 2857.7 1.3 62.7 -263.3 5.5zm262 -68.2l8.1 31.2 -6.8 31.5 -1.3 -62.7z"/>
  </g>
  <g>
   <path fill="#FEFEFE" d="M31350.7 8985.6c309.2,0 320.5,0.2 320.5,-74.4l0 -2381.7c143.2,-108.7 309.2,-160.2 492.4,-160.2 131.8,0 240.5,40.1 320.7,86 28.6,-57.5 45.7,-137.6 45.7,-189.1 0,-120.3 -131.6,-200.4 -412.2,-200.4 -251.9,0 -520.9,85.9 -767.2,251.9l0.2 2667.9z"/>
   <path id="1" fill="#FEFEFE" fill-rule="nonzero" d="M31535.8 8911.2l270.7 0 0 0 -0.1 8.6 -0.2 9.7 -0.7 11.2 -1.3 12.3 -2.4 14.9 -4.1 16.3 -6.2 17.5 -9 18.7 -12.3 18.9 -15.4 17.8 -17.1 15 -17.3 11.7 -17.2 9.1 -16.4 6.7 -15.6 5 -14.5 3.7 -14.9 3 -14.3 2.2 -13.8 1.7 -14.5 1.4 -14.9 1.1 -15.7 0.9 -16.6 0.7 -17.4 0.5 -18.3 0.4 -19.6 0.3 -20.7 0.2 -22.1 0.2 -23.6 0.1 -25 0.1 -26.6 0 -28.1 0 0 -270.7 28.1 0 26.2 0 24.6 -0.1 22.8 -0.1 21.2 -0.2 19.6 -0.2 18 -0.3 16.4 -0.3 14.7 -0.5 12.9 -0.5 11.4 -0.7 9.8 -0.7 8 -0.8 6.6 -0.8 4.2 -0.5 1.6 -0.4 0.2 0 -2.6 0.8 -5.1 2.1 -7.4 3.9 -8.8 6 -9.8 8.6 -9.5 10.9 -7.5 11.4 -5.1 10.4 -3.1 8.7 -1.7 6.7 -0.8 4.7 -0.2 1.2 0.1 -0.7 0 -2.9 0.1 -4.9 0 0zm270.7 -2381.7l0 2381.7 -270.7 0 0 -2381.7 53.5 -107.8 217.2 107.8zm-270.7 0l0 -67.1 53.5 -40.7 -53.5 107.8zm627.7 -295.5l0 270.7 0 0 -14.7 0.2 -14.7 0.4 -14.3 0.7 -14.4 0.9 -14.2 1.2 -14.1 1.4 -14 1.7 -13.7 1.9 -13.5 2.2 -13.7 2.4 -13.6 2.7 -13.1 2.9 -13.1 3.2 -13.1 3.5 -13.1 3.8 -12.6 3.9 -12.6 4.2 -12.6 4.5 -12.4 4.8 -12.6 5.1 -12.1 5.2 -12.1 5.5 -12 5.7 -11.9 6.1 -11.9 6.3 -11.7 6.7 -11.7 6.9 -11.3 7 -11.7 7.6 -11.6 7.8 -11.2 8 -11.3 8.3 -163.6 -215.6 15.7 -11.7 16.1 -11.4 16 -10.8 16 -10.5 16.8 -10.4 16.6 -9.8 16.8 -9.4 16.9 -9.1 17.1 -8.6 17.3 -8.3 17.4 -7.9 17.7 -7.6 17.5 -7.1 17.9 -6.8 17.9 -6.4 18.1 -6 18.4 -5.7 18.1 -5.2 18.2 -4.9 18.7 -4.5 18.7 -4.1 18.6 -3.8 18.7 -3.4 19.1 -3 19.1 -2.6 19 -2.3 19 -2 19.2 -1.6 19.3 -1.3 19.6 -0.9 19.4 -0.5 19.5 -0.2 0 0zm199.4 161.1l242.4 120.4 -188.5 57.2 -5.9 -3.4 -6.3 -3.4 -6.5 -3.5 -6.3 -3.2 -6.6 -3.2 -6.5 -3.1 -7 -3.2 -7.1 -3.2 -7 -3 -7.1 -2.9 -7.4 -2.9 -7.2 -2.7 -7.5 -2.6 -8 -2.7 -7.8 -2.4 -7.7 -2.4 -8 -2.2 -8.2 -2.2 -8.3 -2.1 -8.1 -1.9 -8.5 -1.8 -8.5 -1.7 -8.7 -1.5 -9.1 -1.5 -8.7 -1.2 -8.8 -1.1 -9.4 -1 -9.2 -0.8 -9.1 -0.6 -9.7 -0.5 -9.8 -0.2 -9.7 -0.1 0 -270.7 14.9 0.1 14.5 0.5 14.4 0.6 14.7 1 14.3 1.3 13.8 1.4 14.1 1.7 14 2 13.2 2.1 13.4 2.3 13.4 2.6 12.9 2.7 13 3 12.7 3.2 12.3 3.3 12.3 3.5 12.3 3.7 11.9 3.9 11.3 3.8 11.6 4.1 11.6 4.4 11 4.2 11 4.5 10.9 4.7 10.3 4.6 10.1 4.7 10.3 4.9 10 5 9.8 5 9.4 5 9.3 5.1 9.2 5.2 -188.5 57.2zm242.4 120.4l-63.9 128.6 -124.6 -71.4 188.5 -57.2zm-210.9 -249.3l270.7 0 0 0 -0.1 7.3 -0.2 7.3 -0.4 8.2 -0.5 8.1 -0.6 7.4 -0.7 6.7 -0.8 7.5 -1.1 8.3 -1 7.6 -1.2 7.6 -1.3 7.9 -1.4 7.8 -1.4 7.7 -1.5 7.3 -1.7 8 -2 8.5 -2 8.1 -1.9 7.5 -2 7.5 -2.3 8.2 -2.4 8.1 -2.4 8 -2.5 7.7 -2.6 7.6 -2.9 8.2 -2.9 8 -3.2 8.3 -2.9 7 -3.2 7.6 -3.9 8.8 -3.6 7.7 -3.6 7.5 -242.4 -120.4 1.6 -3.3 1.7 -3.5 1.1 -2.6 1.6 -4.1 1.9 -4.7 1.4 -3.7 1.5 -4 1.4 -4.1 1.5 -4.7 1.6 -4.8 1.4 -4.5 1.3 -4.4 1.2 -4.4 1.4 -5.2 1.3 -5.2 1.1 -4.5 0.9 -4.1 1 -4.5 1 -5.2 1 -4.7 0.8 -4.4 0.7 -4.2 0.6 -4.4 0.7 -4.2 0.4 -3.4 0.4 -3.9 0.4 -4.5 0.4 -3.6 0.2 -2.5 0.1 -2.3 0.1 -2.8 0.1 -2.4 0 0zm-276.8 -65.1l0 -270.7 0 0 28.4 0.2 27.5 0.8 26.9 1.3 26.2 1.8 25.4 2.3 24.9 2.8 24.3 3.5 23.3 3.9 22.7 4.4 22.4 5.1 21.9 5.7 20.7 6.2 20.6 6.9 20 7.8 19.2 8.2 18.8 9.2 18.2 10 17.7 10.9 16.9 11.8 16.4 12.9 15.6 13.9 14.6 14.8 13.6 15.9 12.6 17 11.3 18.1 9.8 18.5 8.4 19.3 7 20 5.4 20.7 3.7 20.5 2.2 20.7 0.7 20.6 -270.7 0 0 -1.7 -0.2 -1.1 -0.1 -0.8 -0.1 -0.1 -0.1 -0.2 -0.2 -0.4 -0.4 -0.7 -0.4 -0.5 -0.7 -1 -1.3 -1.5 -2 -2 -2.6 -2.3 -3.4 -2.6 -4.5 -3.1 -5.3 -3.3 -6.4 -3.5 -7.4 -3.6 -8.8 -3.8 -9.5 -3.7 -10.7 -3.6 -12.2 -3.7 -12.7 -3.3 -14 -3.1 -15.4 -3 -16.3 -2.8 -17.2 -2.4 -18.2 -2.1 -19.4 -1.7 -20.3 -1.4 -21.4 -1 -22.5 -0.6 -23.3 -0.2 0 0zm-631.9 116.5l-270.7 0 59.7 -112.3 25 -16.6 25.3 -16 25.2 -15.5 25.6 -15.1 25.6 -14.6 25.6 -14 25.9 -13.6 26 -13.1 26 -12.5 26.2 -12 26.4 -11.6 26.2 -10.9 26.4 -10.6 26.7 -10 26.5 -9.5 26.8 -9 26.6 -8.3 26.7 -7.9 26.8 -7.3 26.8 -6.9 26.7 -6.3 26.9 -5.8 26.9 -5.2 26.7 -4.7 26.8 -4.1 26.8 -3.6 26.8 -3.1 26.8 -2.5 26.8 -2 26.5 -1.4 26.6 -0.8 26.6 -0.3 0 270.7 -20.7 0.2 -20.9 0.7 -21.2 1.1 -21 1.5 -21.3 2 -21.2 2.4 -21.4 2.9 -21.6 3.4 -21.6 3.8 -21.6 4.2 -21.6 4.7 -21.8 5.2 -21.9 5.5 -21.8 6 -22 6.5 -21.9 6.9 -21.9 7.3 -21.9 7.8 -21.9 8.2 -21.9 8.8 -22.1 9.2 -21.8 9.5 -21.9 10.1 -21.9 10.5 -21.7 10.9 -21.8 11.4 -21.7 11.9 -21.6 12.2 -21.5 12.8 -21.5 13.2 -21.3 13.7 -21.3 14.1 59.7 -112.3zm-270.7 0l0 -72 59.7 -40.2 -59.7 112.3zm0.2 2667.9l-0.2 -2667.9 270.7 0 0.2 2667.9 -135.4 135.4 -135.4 -135.4zm135.4 135.4l-135.4 0 0 -135.4 135.4 135.4z"/>
  </g>
  <g>
   <path fill="#FEFEFE" d="M29140.7 6329.3c0,51.5 11.6,114.5 45.9,183.1 154.5,-68.7 463.6,-143 824.4,-143 269,0 452.3,80.2 452.3,452.3l0 503.7c-126,-51.6 -314.9,-68.8 -469.4,-68.8 -429.4,0 -853.1,126 -853.1,933.3 0,784.1 412.2,859.6 824.4,854 400.8,0 646.9,-126.9 778.5,-207.1 17.2,-446.7 28.7,-1082.1 28.7,-1734.8l0 -343.4c0,-515.3 -228.9,-692.8 -687,-692.8 -418,0 -784.3,80.1 -898.8,148.9 -28.5,22.8 -45.9,114.5 -45.9,114.5zm1322.6 1230.9c0,372.1 -11.6,841.6 -28.7,1082 -62.8,57.1 -240.5,125.9 -423.6,125.9 -292,0 -543.8,-45.7 -543.8,-589.7 0,-606.9 297.5,-675.4 624,-675.4 108.9,-0.2 263.2,17.1 372.1,57.2z"/>
   <path id="1" fill="#FEFEFE" fill-rule="nonzero" d="M29131.5 6388.7l110.1 247.3 -176.1 -63.1 -4.2 -8.5 -3.7 -7.8 -3.7 -8 -3.7 -8.5 -3.3 -7.9 -3 -7.6 -3.2 -8.1 -3.2 -8.6 -2.9 -8.1 -2.5 -7.5 -2.6 -7.9 -2.4 -8.2 -2.2 -7.6 -2.1 -7.9 -2.1 -8.1 -1.8 -7.6 -1.7 -7.2 -1.7 -8.2 -1.4 -7.6 -1.2 -6.6 -1.4 -8.1 -1.1 -7.5 -1 -6.7 -1 -8.1 -0.8 -7.4 -0.6 -6.6 -0.5 -6.6 -0.5 -7.3 -0.4 -7.4 -0.2 -7.4 -0.1 -6.5 -0.1 -6.5 270.7 0 0.1 3.2 0 3.4 0.1 2.6 0.1 2.7 0.2 2.8 0.3 3.8 0.4 3.9 0.3 3.2 0.3 2.6 0.6 4.2 0.5 3.5 0.5 2.9 0.8 4.7 0.7 3.8 0.7 3.1 1 4.2 1 4.1 0.9 3.5 1.1 3.9 1.3 4.4 1.1 3.8 1.4 4.1 1.6 4.7 1.4 4.2 1.4 3.6 1.7 4.3 2 4.8 2 4.7 1.8 4.1 2.1 4.6 2.3 4.9 2.1 4.4 -176.1 -63.1zm110.1 247.3l-118.2 52.6 -57.8 -115.7 176.1 63.1zm769.4 -402l0 270.7 0 0 -32 0.2 -31.6 0.5 -31.2 1 -31.1 1.4 -30.7 1.7 -30.2 2 -29.8 2.4 -29.6 2.7 -29 3 -28.6 3.3 -28 3.5 -27.5 3.9 -27.1 4.1 -26.5 4.3 -25.9 4.5 -25.3 4.7 -24.7 4.9 -24.1 5.1 -23.3 5.2 -22.8 5.4 -22.2 5.5 -21.3 5.5 -20.6 5.7 -19.8 5.7 -18.9 5.7 -18.2 5.8 -17.4 5.8 -16.3 5.8 -15.4 5.6 -14.3 5.6 -13.6 5.5 -12.4 5.4 -110.1 -247.3 17.5 -7.5 18 -7.5 19.1 -7.4 19.7 -7.3 20.4 -7.1 21 -7 21.8 -7 22.6 -6.8 23.3 -6.7 23.9 -6.5 24.6 -6.4 25.2 -6.2 25.9 -6.1 26.7 -5.9 27.1 -5.7 27.7 -5.5 28.4 -5.3 29 -5.1 29.6 -4.8 30.1 -4.5 30.6 -4.2 31.2 -4 31.7 -3.6 32 -3.3 32.6 -3 33.1 -2.7 33.6 -2.3 33.8 -1.8 34.2 -1.5 34.8 -1.1 35.1 -0.7 35.4 -0.2 0 0zm587.6 587.7l-270.7 0 0 0 -0.5 -29.7 -1.4 -27.7 -2.2 -25.7 -2.9 -23.7 -3.7 -21.7 -4.2 -19.8 -4.8 -17.7 -5.3 -16.2 -5.7 -14.6 -5.8 -12.7 -6.1 -11.3 -6.3 -10.1 -6.5 -8.9 -7 -8.2 -6.9 -7.3 -7.6 -6.7 -8.1 -6.4 -8.5 -5.8 -9.5 -5.5 -10.3 -5.2 -11.4 -4.9 -12.2 -4.6 -13.2 -4.2 -14.6 -3.8 -15.6 -3.5 -16.5 -3 -17.6 -2.5 -18.7 -2 -19.5 -1.6 -20.5 -1.1 -21.6 -0.7 -22.2 -0.2 0 -270.7 27.8 0.2 27.3 0.9 27.3 1.4 27.1 2.2 26.8 3 26.7 3.8 26.7 4.8 26.4 5.8 25.9 6.9 26.1 8.2 25.8 9.6 25.1 11 24.7 12.5 24.1 14.3 23.6 15.9 22.4 17.6 21.5 19.3 20.4 21.1 18.8 22.4 17.6 24.1 16 25.5 14.5 26.8 12.9 28.1 11.3 28.9 9.8 30.1 8.5 31.4 7 32.4 5.6 33.4 4.4 34.6 3 35.7 1.8 37.1 0.6 38.4 0 0zm-270.7 503.7l0 -503.7 270.7 0 0 503.7 -186.7 125.2 -84 -125.2zm270.7 0l0 201.7 -186.7 -76.5 186.7 -125.2zm-604.8 66.5l0 -270.7 0 0 15.4 0.1 15.8 0.1 16 0.4 15.9 0.4 16.2 0.5 16.3 0.7 16.7 0.8 16.5 1 16.3 1 16.8 1.1 16.9 1.4 16.6 1.4 16.9 1.7 16.9 1.8 16.6 1.9 16.8 2.1 17 2.3 16.7 2.4 16.6 2.6 16.8 2.9 16.6 3.1 16.3 3.2 16.2 3.4 16.6 3.7 16.2 4 15.8 4.1 16 4.5 15.6 4.7 15.4 4.9 15.6 5.4 15.4 5.7 15 6 -102.7 250.4 -9 -3.6 -9.2 -3.4 -9.8 -3.3 -10.6 -3.3 -11 -3.3 -11 -3 -11.9 -3.1 -12 -2.9 -12 -2.7 -12.8 -2.7 -13.1 -2.6 -13.1 -2.4 -13.2 -2.3 -13.8 -2.1 -13.8 -2.1 -13.8 -1.8 -14.1 -1.7 -14.5 -1.7 -14.3 -1.6 -14.3 -1.3 -14.6 -1.3 -14.3 -1.1 -14.4 -1 -14.7 -0.9 -14.5 -0.8 -14.2 -0.7 -14.3 -0.5 -14.2 -0.5 -14.3 -0.4 -13.9 -0.2 -13.7 -0.1 -13.8 -0.1 0 0zm-717.8 798l-270.7 0 0 0 1.3 -78.3 3.9 -74.8 6.4 -71.3 8.9 -68.2 11.5 -64.8 14 -61.7 16.5 -58.7 18.8 -55.8 21.3 -52.7 23.7 -49.9 26.1 -46.9 28.3 -44 30.6 -41.1 32.4 -38 34.5 -35.2 36.3 -32.3 37.6 -29.1 38.9 -26.3 40.1 -23.5 41 -20.8 41.7 -18.2 42.3 -15.9 42.8 -13.6 43 -11.5 43.2 -9.6 43.5 -7.9 43.5 -6.3 43.5 -4.8 43.5 -3.5 43.3 -2.3 43.1 -1.4 42.9 -0.4 0 270.7 -37.6 0.4 -37 1.1 -36.6 2 -35.8 2.9 -35.2 3.9 -34.3 4.9 -33.4 6 -32.5 7.2 -31.4 8.4 -30.1 9.5 -29.2 10.9 -27.9 12.2 -26.7 13.5 -25.6 15 -24.6 16.5 -23.4 18.1 -22.4 19.9 -21.3 21.8 -20.6 24.1 -19.6 26.4 -18.6 29 -17.7 31.8 -16.5 34.9 -15.4 38 -14.1 41.6 -12.6 45.1 -11 48.8 -9.4 52.6 -7.5 56.6 -5.5 60.8 -3.3 64.9 -1.2 69.1 0 0zm689.1 718.7l0 270.7 1.8 0 -40.6 0.3 -40.8 -0.4 -41.1 -1.1 -41.4 -2 -41.4 -3.1 -41.6 -4.2 -41.7 -5.6 -41.6 -7.2 -41.6 -8.9 -41.3 -10.8 -41 -12.8 -40.6 -15.1 -40.2 -17.6 -39.4 -20.4 -38.5 -23.1 -37.3 -26.1 -35.9 -29 -34.2 -32.1 -32.5 -35.2 -30.5 -38.3 -28.1 -41.3 -25.9 -44.3 -23.4 -47.2 -21.1 -50.1 -18.6 -53.2 -16.2 -56 -13.7 -59.1 -11.2 -62.3 -8.8 -65.5 -6.3 -68.9 -3.8 -72.5 -1.3 -76 270.7 0 1.1 66.8 3.2 62.4 5.4 58.1 7.2 53.9 8.9 49.7 10.6 45.7 12 41.9 13.4 38 14.5 34.6 15.6 31.2 16.5 28.2 17.4 25.5 18.1 22.8 19 20.6 19.9 18.7 20.9 16.9 21.8 15.3 23 13.8 24 12.4 25.3 11.1 26.7 9.9 27.9 8.8 29.2 7.6 30.3 6.5 31.4 5.4 32.5 4.4 33.5 3.4 34.3 2.5 34.9 1.7 35.7 0.9 36.3 0.4 36.7 -0.3 1.8 0zm-1.8 0l0 0 1.8 0 -1.8 0zm645.2 -76.9l270.5 10.4 -64.9 110.4 -13.8 8.3 -14.3 8.4 -15.2 8.8 -16.3 9.1 -16.9 9.2 -17.8 9.5 -18.5 9.4 -19.3 9.6 -20.3 9.6 -20.9 9.5 -21.8 9.5 -22.7 9.5 -23.6 9.3 -24.3 9.2 -25.2 8.9 -25.8 8.6 -26.8 8.5 -27.9 8.3 -28.6 7.8 -29.1 7.4 -30.3 7.2 -31.1 6.6 -32 6.1 -32.8 5.6 -33.5 5.1 -34.6 4.5 -35.5 3.9 -36.2 3.3 -37.1 2.6 -38 1.9 -39 1.2 -39.8 0.4 0 -270.7 34.5 -0.4 33.4 -1 32.7 -1.7 31.7 -2.2 30.9 -2.8 30 -3.3 29 -3.8 28.4 -4.3 27.5 -4.7 26.6 -5.2 25.9 -5.5 24.9 -5.8 24.6 -6.2 23.4 -6.4 22.5 -6.6 22 -7 21.5 -7.2 20.5 -7.3 19.9 -7.5 19 -7.5 18.3 -7.6 17.8 -7.8 17.2 -7.9 16.3 -7.7 15.7 -7.8 15.2 -7.8 14.5 -7.7 14 -7.6 13.2 -7.5 12.8 -7.4 12.4 -7.3 11.6 -6.9 -64.9 110.4zm270.5 10.4l-2.8 72.6 -62.1 37.8 64.9 -110.4zm-241.9 -1740l270.7 0 0 0 -0.1 61.2 -0.1 61.1 -0.2 61.1 -0.2 60.8 -0.3 60.5 -0.4 60.3 -0.4 60 -0.5 59.7 -0.5 59.4 -0.6 58.9 -0.6 58.6 -0.7 58.1 -0.8 57.7 -0.8 57 -0.8 56.6 -1 56 -1 55.4 -1 54.8 -1.1 54 -1.1 53.5 -1.2 52.7 -1.2 51.9 -1.3 51.1 -1.3 50.4 -1.4 49.5 -1.4 48.5 -1.4 47.7 -1.5 46.8 -1.5 45.7 -1.5 44.7 -1.6 43.8 -1.6 42.7 -270.5 -10.4 1.6 -42.2 1.5 -43.2 1.5 -44.4 1.5 -45.4 1.5 -46.3 1.4 -47.2 1.4 -48.4 1.4 -49 1.3 -49.9 1.3 -50.9 1.2 -51.6 1.2 -52.4 1 -53 1.1 -53.8 1 -54.4 1 -55.2 1 -55.7 0.8 -56.2 0.8 -56.9 0.8 -57.3 0.7 -57.8 0.6 -58.2 0.6 -58.7 0.5 -59 0.5 -59.4 0.4 -59.7 0.4 -60 0.3 -60.3 0.2 -60.5 0.2 -60.6 0.1 -60.9 0.1 -61 0 0zm270.7 -343.4l0 343.4 -270.7 0 0 -343.4 0 0 270.7 0zm-822.4 -557.4l0 -270.7 0 0 45.8 0.6 44.7 1.7 43.6 3 42.7 4.2 41.8 5.6 40.7 7.2 39.8 8.5 39 10.3 37.9 11.9 37 13.7 35.8 15.6 34.6 17.5 33.5 19.6 32.1 21.6 30.6 23.6 29.1 25.8 27.2 27.7 25.4 29.6 23.6 31.6 21.5 33.2 19.6 34.9 17.6 36.4 15.7 37.9 13.8 39.4 12 40.8 10.2 42.2 8.5 43.6 6.8 45.1 5.3 46.5 3.7 48 2.2 49.6 0.7 51.3 -270.7 0 -0.6 -43.4 -1.8 -41.1 -3 -38.8 -4.1 -36.6 -5.2 -34.3 -6.3 -32.1 -7.2 -30 -8.2 -27.8 -9 -25.8 -9.8 -23.7 -10.6 -21.9 -11.3 -20.1 -12 -18.5 -12.6 -16.9 -13.5 -15.7 -14.4 -14.6 -15.1 -13.5 -16.4 -12.6 -17.5 -11.9 -18.8 -10.9 -20.4 -10.3 -21.9 -9.5 -23.5 -8.7 -25.1 -7.9 -26.8 -7 -28.6 -6.1 -30.3 -5.2 -32 -4.3 -33.9 -3.4 -35.5 -2.4 -37.3 -1.5 -38.8 -0.5 0 0zm-814.3 119.3l-169 -211.4 14.8 -10.3 17.5 -9.9 18.1 -9.1 18.2 -8.4 19.6 -8.2 20.5 -7.9 21 -7.6 22.4 -7.5 23.3 -7.2 24.1 -7 25.3 -6.9 26.1 -6.7 27.1 -6.6 28.3 -6.4 29 -6.1 29.9 -6 30.8 -5.8 31.7 -5.5 32.5 -5.4 33.2 -4.9 33.9 -4.8 34.8 -4.5 35.5 -4.2 36.1 -3.8 36.7 -3.6 37.4 -3.2 37.9 -2.8 38.4 -2.4 38.9 -2.1 39.5 -1.6 39.9 -1.1 40.2 -0.7 40.6 -0.2 0 270.7 -37.5 0.2 -37 0.6 -36.7 1.1 -36.4 1.5 -36 1.8 -35.5 2.3 -35 2.6 -34.3 2.9 -33.8 3.2 -33.3 3.6 -32.5 3.8 -31.7 4.1 -31.2 4.4 -30.2 4.6 -29.4 4.8 -28.6 5 -27.5 5.1 -26.8 5.4 -25.6 5.4 -24.3 5.5 -23.5 5.7 -22.3 5.7 -20.8 5.7 -19.8 5.8 -18.4 5.7 -16.7 5.6 -15.4 5.5 -13.6 5.2 -11.7 5 -10.4 4.7 -7.8 3.9 -5.4 3.1 14.8 -10.3zm-169 -211.4l7.2 -5.8 7.6 -4.5 -14.8 10.3zm174 220.2l-270.7 0 2.4 -25.2 -0.2 1.4 0.8 -4.6 0.1 -0.5 0.4 -2.1 1 -4.3 0.5 -2.4 0.8 -3.6 0.9 -4 1 -4.2 1.1 -4.6 1.3 -4.9 1.4 -5.5 1.5 -5.6 1.7 -6.1 1.8 -6 1.9 -6.4 2.1 -6.8 1.9 -5.8 2.4 -7 2.7 -7.5 2.7 -7 2.8 -6.9 3.2 -7.6 3.8 -8 4.3 -8.7 4.4 -8 4.9 -8.3 6.4 -9.8 6.7 -9.2 7.7 -9.3 9.8 -10.4 12.7 -11.2 169 211.4 7.5 -6.6 4.7 -4.9 2.7 -3.2 1.8 -2.6 1.7 -2.6 0.4 -0.5 -0.2 0.2 0 0 -0.4 1 -0.8 1.7 -1 2.6 -1 2.7 -0.8 2.3 -1 2.9 -1.3 3.9 -1 2.9 -1 3.3 -1 3.3 -0.8 3.1 -0.9 3.2 -0.8 3 -0.8 3.2 -0.7 2.9 -0.7 2.8 -0.5 2.3 -0.5 2.2 -0.5 2.6 0 -0.1 -0.2 1.3 -0.5 2 0.6 -3 -0.4 1.9 2.4 -25.2zm-270.7 0l0 -12.6 2.4 -12.6 -2.4 25.2zm1520.2 2413.1l-182 -200.5 -44 90.6 1.6 -22.5 1.5 -23.7 1.5 -25.2 1.4 -26.5 1.4 -27.5 1.4 -28.6 1.3 -29.6 1.3 -30.6 1.3 -31.5 1.3 -32.3 1.1 -33 1.1 -33.9 1.1 -34.5 1.1 -34.9 1 -35.4 1 -36.1 1 -36.2 0.8 -36.7 0.8 -36.9 0.7 -37.1 0.7 -37.4 0.7 -37.4 0.6 -37.4 0.5 -37.4 0.5 -37.2 0.4 -37.1 0.4 -36.9 0.3 -36.7 0.2 -36.3 0.2 -35.8 0.1 -35.4 0.1 -34.9 270.7 0 -0.1 35.4 -0.1 35.9 -0.2 36.4 -0.2 36.7 -0.3 37 -0.4 37.4 -0.4 37.5 -0.5 37.7 -0.5 37.7 -0.6 37.9 -0.7 37.7 -0.7 37.6 -0.7 37.6 -0.9 37.4 -0.8 37.1 -1 36.8 -1 36.3 -1 36 -1.1 35.5 -1.1 34.8 -1.1 34.2 -1.3 33.7 -1.3 33 -1.3 32.1 -1.3 31.2 -1.4 30.5 -1.4 29.3 -1.4 28.4 -1.6 27.3 -1.5 26.2 -1.6 25.3 -1.7 23.9 -44 90.6zm44 -90.6l-3.9 54.2 -40.1 36.4 44 -90.6zm-558.6 251.6l0 -270.7 0 0 14.1 -0.1 14 -0.5 14.2 -0.8 14 -1.1 13.9 -1.4 14 -1.7 14.2 -2 13.7 -2.1 13.5 -2.4 13.7 -2.7 13.1 -2.8 13.1 -3.2 12.9 -3.3 12.5 -3.5 12.3 -3.6 11.9 -3.7 11.7 -3.9 11.2 -3.9 10.7 -4.1 10.5 -4.1 9.9 -4.2 8.9 -3.9 8.8 -4.2 8.3 -4.1 7.3 -3.9 7.1 -3.9 5.9 -3.5 5.2 -3.3 4.5 -3.1 3.7 -2.7 2.6 -2 1.2 -1.1 182 200.5 -11.2 9.7 -11.3 8.9 -11.3 8.3 -11.7 7.9 -12.2 7.8 -12.7 7.5 -12.6 7 -13.5 7.1 -13.5 6.7 -13.8 6.6 -14.8 6.6 -14.7 6.1 -15 6 -15.7 5.8 -15.9 5.6 -16.1 5.4 -16.6 5.2 -16.9 4.9 -17.3 4.8 -17.5 4.5 -17.9 4.2 -18.3 4 -18.2 3.6 -18.8 3.4 -19 3 -19 2.7 -19.4 2.3 -19.7 2 -19.8 1.6 -19.9 1.1 -20.2 0.7 -20.2 0.2 0 0zm-679.2 -725l270.7 0 0 0 0.7 45.4 2 42.3 3.2 39.1 4.3 35.9 5.4 33 6.2 30 7 27 7.8 24.4 8.2 21.8 8.6 19 9.1 16.9 9.4 14.8 9.5 13.1 9.7 11.3 10.1 10.1 10.6 9.1 11.1 8.2 11.8 7.5 12.6 6.9 13.6 6.2 14.9 5.7 15.8 5.1 17.1 4.6 18.3 4.1 19.1 3.4 20.5 2.8 21.5 2.3 22.5 1.7 23.3 1.3 24.3 0.8 24.9 0.5 25.6 0.1 0 270.7 -28.9 -0.1 -29 -0.6 -29.2 -1 -29.3 -1.7 -29.3 -2.3 -29.5 -3.2 -29.6 -4.1 -29.9 -5.3 -29.6 -6.6 -29.6 -7.9 -29.8 -9.7 -29.3 -11.4 -29.2 -13.4 -28.8 -15.6 -27.9 -17.7 -27.1 -20 -25.8 -22.2 -24.6 -24.6 -23.1 -27 -21.2 -28.9 -19.5 -31 -17.6 -33 -15.9 -35 -14 -36.7 -12.2 -38.4 -10.6 -40.5 -8.8 -42.4 -7.2 -44.4 -5.6 -46.7 -3.9 -48.8 -2.4 -51.2 -0.8 -53.7 0 0zm759.1 -810.8l0.5 270.7 -0.2 0 -28.6 0.2 -27.8 0.6 -27.1 1.2 -26.5 1.7 -25.5 2.3 -24.6 3 -23.7 3.8 -22.8 4.4 -21.5 5.1 -20.4 5.8 -19.3 6.6 -18.3 7.5 -17.2 8.2 -16.3 9 -15.2 9.8 -14.3 10.7 -13.7 12 -13.2 13.2 -12.6 14.7 -12.2 16.5 -11.8 18.4 -11.3 20.7 -10.7 23 -10.1 25.8 -9.3 28.4 -8.5 31.5 -7.5 34.5 -6.3 37.6 -5.1 41 -3.8 44.2 -2.3 47.5 -0.8 51 -270.7 0 0.9 -59.6 2.8 -57.1 4.7 -54.3 6.5 -51.8 8.3 -49.6 10.3 -47.2 12 -44.9 14.1 -42.9 16 -40.7 17.9 -38.5 20 -36.4 21.8 -34.2 23.7 -31.9 25.4 -29.5 27 -27.2 28.5 -24.7 29.8 -22.4 30.8 -19.9 31.4 -17.5 32 -15.3 32.5 -13.2 32.9 -11.4 33.2 -9.5 33.2 -7.9 33.1 -6.4 33.2 -5.2 33.3 -4.1 33.2 -3 33 -2.1 32.9 -1.4 32.7 -0.7 32.5 -0.2 -0.2 0zm0.5 270.7l0 0 -0.2 0 0.2 0zm507.2 -78.1l-270.7 0 88.5 127 -7.9 -2.9 -8.1 -2.7 -8.7 -2.7 -9.1 -2.7 -9.1 -2.6 -9.7 -2.6 -9.6 -2.4 -10.1 -2.4 -10.3 -2.3 -10.5 -2.1 -10.7 -2.2 -10.7 -2 -10.9 -2 -10.6 -1.7 -11.4 -1.8 -11.1 -1.7 -10.7 -1.4 -11.4 -1.4 -11.1 -1.4 -11 -1.1 -11 -1.1 -10.9 -1 -11.1 -1 -10.6 -0.8 -10.5 -0.7 -10.6 -0.6 -10.1 -0.5 -9.9 -0.4 -10.1 -0.4 -9.4 -0.2 -9.5 -0.1 -8.9 -0.1 -0.5 -270.7 11.7 0.1 11.7 0.1 12.2 0.3 12.1 0.4 12.5 0.5 12.8 0.7 12.5 0.7 13 0.9 13.1 1 12.9 1.1 13.4 1.2 13.4 1.4 13.5 1.5 13.5 1.6 13.3 1.7 13.9 1.9 13.6 2 13.3 2 14 2.3 13.6 2.4 13.6 2.6 13.5 2.7 13.5 2.9 13.4 3 13.4 3.1 13.5 3.5 13.2 3.5 13.4 3.8 13.1 3.9 12.9 4.1 13.1 4.4 12.7 4.5 88.5 127zm-88.5 -127l88.5 32.6 0 94.4 -88.5 -127z"/>
  </g>
  <g>
   <path fill="#FEFEFE" d="M28287.7 6191.9c-120.3,-86.2 -269.2,-126 -469.4,-126 -521.1,0 -950.4,469.4 -950.4,1568.6 0,1265.1 423.6,1409.4 927.5,1409.4 337.8,0 624,-75.5 812.9,-172.8l0.2 -4093.5c-251.9,0 -320.7,0.2 -320.7,154.7l0 1259.6zm5.8 2450.3c-126,80 -292.2,114.5 -469.6,114.5 -366.2,-5.8 -618.3,-137.4 -618.3,-1150.7 0,-933.3 326.3,-1259.5 704.2,-1259.5 177.5,-0.2 269,28.7 377.9,114.4l5.8 2181.3z"/>
   <path id="1" fill="#FEFEFE" fill-rule="nonzero" d="M27818.3 6201.2l0 -270.7 0 0 20.3 0.1 20.2 0.4 19.9 0.7 19.4 0.9 19.4 1.1 19.4 1.5 19 1.7 18.8 2 18.5 2.3 18.7 2.6 18.1 2.9 17.7 3.1 18 3.5 17.8 3.8 17.3 4.1 17.2 4.4 17.1 4.8 17 5.1 16.6 5.4 16.5 5.7 16.1 6.1 16.2 6.4 16 6.9 15.5 7 15.4 7.5 15.3 7.7 15.1 8.2 14.8 8.4 14.6 8.8 14.5 9.2 14 9.4 14 9.7 -157.7 220 -8.8 -6.1 -9.1 -6 -8.9 -5.6 -9.2 -5.5 -9.3 -5.3 -9.4 -5.1 -9.7 -4.9 -9.9 -4.7 -10.1 -4.6 -10.1 -4.4 -10.4 -4.1 -10.9 -4.1 -10.9 -3.8 -11.2 -3.6 -11.4 -3.5 -11.6 -3.2 -12 -3.1 -12.4 -2.9 -12.4 -2.7 -12.6 -2.4 -13.5 -2.4 -13.5 -2.2 -13.5 -1.9 -14.3 -1.7 -14.5 -1.6 -14.8 -1.4 -14.9 -1.1 -15.5 -0.9 -16.1 -0.8 -16.2 -0.5 -16.5 -0.3 -16.9 -0.1 0 0zm-815.1 1433.3l-270.7 0 0 0 1.3 -104.6 3.8 -101.1 6.3 -97.7 8.8 -94.2 11.3 -90.8 13.5 -87.4 15.9 -84.3 18.2 -80.9 20.4 -77.6 22.7 -74.4 24.9 -71.1 27 -68 29.2 -64.9 31.2 -61.6 33.3 -58.5 35.5 -55.4 37.3 -52.1 39.4 -49 41.3 -45.7 43 -42.3 44.9 -39.1 46.5 -35.6 48.1 -32.3 49.7 -28.9 50.9 -25.3 52.1 -21.9 53.1 -18.4 54 -15 54.8 -11.5 55.4 -8.2 55.9 -4.8 56.3 -1.6 0 270.7 -40.8 1.1 -39.9 3.5 -39.3 5.8 -38.3 8 -37.6 10.4 -36.8 12.8 -36 15.1 -35.2 17.6 -34.5 20 -33.7 22.7 -33.2 25.3 -32.3 28 -31.5 31 -30.7 34 -29.7 37 -28.9 40.2 -27.7 43.3 -26.6 46.8 -25.5 50.1 -24.1 53.6 -22.7 57.1 -21.2 60.6 -19.6 64.3 -17.9 67.9 -16.1 71.5 -14.2 75.2 -12.2 78.9 -10.2 82.7 -8 86.3 -5.8 90.3 -3.6 94 -1.2 97.8 0 0zm792.1 1274.1l0 270.7 0 0 -49.7 -0.5 -49.7 -1.6 -49.8 -2.9 -49.8 -4.5 -49.6 -6.3 -49.5 -8.3 -49.3 -10.7 -49 -13.3 -48.6 -16.2 -47.9 -19.3 -47.2 -22.7 -46.1 -26.4 -44.7 -30.2 -43.2 -34 -41.3 -37.9 -39.4 -42 -37 -45.9 -34.7 -49.8 -32.4 -53.9 -29.9 -57.8 -27.5 -62.1 -25.1 -66.2 -22.7 -70.5 -20.5 -75.1 -18.1 -79.8 -15.7 -84.7 -13.4 -89.7 -11 -95.1 -8.6 -100.6 -6.3 -106.3 -3.7 -112.2 -1.3 -118.3 270.7 0 1.2 112.5 3.6 105.7 5.8 99.2 8 93 10 86.6 12 80.6 14 74.8 15.6 69 17.2 63.4 18.8 58.1 20 52.9 21.2 47.8 22.3 43 23.2 38.6 24.1 34.5 24.7 30.8 25.5 27.2 26.4 24.2 27.1 21.4 28.1 18.8 29.3 16.8 30.5 14.7 31.9 12.9 33.3 11.1 34.9 9.5 36.3 7.9 37.9 6.3 39.4 5 40.5 3.6 42 2.4 43.2 1.3 44.2 0.5 0 0zm677.5 -37.4l270.7 0 -73.3 120.3 -20.3 10.3 -20.6 9.8 -21.3 9.8 -21.9 9.5 -22.2 9.4 -22.8 9 -23.1 8.8 -23.8 8.6 -24.3 8.4 -24.6 8 -25.2 7.9 -25.8 7.6 -26.1 7.3 -26.4 7 -27 6.7 -27.5 6.4 -27.9 6.1 -28.1 5.7 -28.8 5.5 -29.1 5.1 -29.3 4.7 -30 4.4 -30.3 4 -30.6 3.6 -31.1 3.2 -31.2 2.8 -31.8 2.5 -32.2 2 -32.3 1.6 -32.8 1.1 -33 0.7 -33.5 0.2 0 -270.7 29.6 -0.2 29.3 -0.6 29 -1 28.9 -1.4 28.3 -1.7 28 -2.1 27.8 -2.4 27.2 -2.9 27 -3.2 26.6 -3.5 26.1 -3.8 25.9 -4.2 25.4 -4.4 24.9 -4.8 24.7 -5 24.1 -5.2 23.6 -5.5 23.3 -5.8 22.8 -6 22.4 -6.2 21.6 -6.4 21.3 -6.7 20.9 -6.9 20.3 -7 19.6 -7.1 19.4 -7.4 18.7 -7.5 18.1 -7.6 17.5 -7.6 16.9 -7.8 16.5 -7.9 15.7 -7.9 -73.3 120.3zm270.7 0l0 82.5 -73.3 37.8 73.3 -120.3zm0.2 -4093.5l-0.2 4093.5 -270.7 0 0.2 -4093.5 135.4 -135.4 135.4 135.4zm-135.4 -135.4l135.4 0 0 135.4 -135.4 -135.4zm-185.3 290.1l-270.7 0 0 0 0.2 -18.2 0.9 -18.1 1.6 -18 2.4 -18.2 3.5 -18.2 4.8 -19 6.4 -18.9 7.9 -18.8 10.5 -19.6 12.2 -18.1 13.9 -16.9 15.8 -15.7 17.1 -13.9 17.9 -11.8 17.9 -9.7 18.1 -8 18 -6.4 17.8 -5.2 17.5 -4.1 16.9 -3.2 17.4 -2.6 17.4 -2 17.6 -1.6 17.9 -1.2 18.2 -1 19 -0.7 19.3 -0.5 19.9 -0.3 20.9 -0.2 21.5 -0.1 22.2 -0.1 23.3 0 0 270.7 -22.9 0 -21.8 0.1 -20.6 0.1 -19.1 0.2 -18 0.3 -16.8 0.4 -15.1 0.5 -14.1 0.7 -12.6 0.8 -11.2 1 -9.7 1.1 -7.9 1.3 -6.7 1.2 -4.7 1.1 -2.7 0.8 -1 0.4 0.6 -0.3 1.8 -1 3.3 -2.1 3.7 -3 3.8 -3.8 3.2 -3.8 2.5 -3.8 2.1 -3.9 0.8 -1.7 0.2 -0.5 -0.2 1 -0.6 3.2 -0.7 4.8 -0.5 6.7 -0.4 8.2 -0.1 9.8 0 0zm-270.7 1259.6l0 -1259.6 270.7 0 0 1259.6 -214.2 110 -56.5 -110zm270.7 0l0 263.4 -214.2 -153.4 214.2 -110zm-601.3 2700.1l4.3 -270.7 -2.1 0 14.8 -0.1 15.1 -0.2 14.7 -0.5 14.3 -0.6 14.5 -0.8 14.4 -1 14.3 -1.3 14.1 -1.4 13.8 -1.6 14 -1.8 13.4 -1.8 13.4 -2.2 13.8 -2.4 12.9 -2.4 12.6 -2.6 13 -2.9 12.5 -3 12.3 -3.2 12.2 -3.4 11.9 -3.6 11.7 -3.8 11.4 -3.9 11.3 -4.1 11 -4.3 10.9 -4.5 10.5 -4.6 10.3 -4.8 9.9 -4.9 10 -5.2 9.8 -5.4 9 -5.2 9.1 -5.7 145.1 228.5 -14.7 9.1 -15.3 8.9 -15 8.2 -15.2 8 -15.7 7.8 -15.9 7.4 -16 7 -15.9 6.6 -16.2 6.3 -16.4 6 -16.6 5.7 -16.5 5.3 -16.8 5.1 -16.8 4.7 -17.1 4.5 -17.2 4.1 -16.9 3.9 -17.6 3.7 -17.6 3.3 -17.1 3 -17.6 2.8 -17.8 2.6 -17.6 2.3 -17.9 2 -17.8 1.7 -17.9 1.5 -18 1.3 -18 1.1 -18.4 0.8 -18.2 0.5 -18 0.4 -18.3 0.1 -2.1 0zm2.1 0l-2.1 0 0 0 2.1 0zm-753.6 -1286l270.7 0 0 0 0.7 90.2 2.1 85 3.5 79.9 4.8 74.8 6.1 69.9 7.3 65.1 8.5 60.5 9.6 55.9 10.7 51.4 11.6 46.9 12.5 42.6 13.2 38.6 13.8 34.6 14.3 30.7 14.7 27.2 15 23.8 15.2 20.9 15.3 17.9 15.4 15.4 16 13.7 16.3 11.9 16.9 10.4 18 9.2 19.1 8.1 20.2 7 21.9 6.1 23.3 5.2 24.7 4.2 26.4 3.3 27.8 2.3 29.3 1.6 30.6 0.8 -4.3 270.7 -37.3 -1.1 -37.2 -2 -37.4 -3.3 -37.3 -4.7 -37.4 -6.3 -37.1 -8.3 -37 -10.4 -37.1 -12.9 -36.4 -15.6 -35.7 -18.3 -34.9 -21.5 -33.6 -24.4 -32.1 -27.5 -30.6 -30.7 -28.6 -33.7 -26.7 -36.4 -24.7 -39.3 -22.8 -42.1 -21 -45 -19.1 -47.9 -17.4 -50.8 -15.8 -54.1 -14.2 -57.4 -12.6 -60.8 -11.2 -64.5 -9.6 -68.2 -8.2 -72.3 -6.7 -76.4 -5.2 -80.7 -3.8 -85.1 -2.3 -89.9 -0.7 -94.6 0 0zm839.4 -1394.9l0.4 270.7 -0.2 0 -27.8 0.8 -27.1 2.3 -26.5 3.8 -25.9 5.4 -25.4 6.9 -24.6 8.5 -24.3 10.1 -23.6 11.7 -23.2 13.5 -22.9 15.4 -22.5 17.5 -22.1 19.7 -21.8 21.9 -21.3 24.3 -20.9 27 -20.4 29.5 -19.8 32.5 -19.3 35.4 -18.4 38.2 -17.5 41.3 -16.7 44.7 -15.6 47.9 -14.5 51 -13.3 54.4 -12 57.8 -10.6 61.2 -9.2 64.6 -7.6 68.3 -6.1 71.8 -4.4 75.3 -2.7 79.1 -0.9 82.7 -270.7 0 1 -88.8 2.9 -85.4 4.8 -82.2 6.7 -78.9 8.5 -75.8 10.4 -72.7 12 -69.7 13.9 -66.7 15.6 -63.9 17.4 -60.9 19 -58.1 20.6 -55.4 22.4 -52.8 24.1 -50.1 25.7 -47.2 27.3 -44.7 29 -42.1 30.6 -39.4 32.2 -36.7 33.6 -33.9 35.1 -31.1 36.4 -28.3 37.7 -25.6 38.9 -22.7 39.8 -19.7 40.6 -17 41.3 -14.1 41.7 -11.4 42.2 -8.7 42.6 -6.1 42.7 -3.6 42.8 -1.1 -0.2 0zm0.4 270.7l0 0 -0.2 0 0.2 0zm513.1 -21.3l-270.7 0.7 51.6 106 -8.6 -6.6 -8.1 -6.1 -7.8 -5.5 -7.9 -5.4 -7.6 -5.1 -7.5 -4.7 -7.4 -4.5 -6.9 -3.9 -7.1 -3.8 -7.3 -3.7 -6.8 -3.2 -6.9 -3 -7.2 -3 -7.3 -2.7 -7.2 -2.5 -7.2 -2.3 -8.2 -2.4 -8.2 -2.2 -8 -1.9 -8.6 -1.8 -9 -1.7 -9.7 -1.6 -10.1 -1.4 -10.6 -1.3 -10.9 -1.2 -11.2 -1 -12.2 -0.8 -12.7 -0.8 -12.9 -0.5 -13.7 -0.4 -14.4 -0.2 -15 -0.1 -0.4 -270.7 17.8 0.1 17.5 0.2 17.2 0.5 17 0.7 16.4 0.9 16.2 1.1 16.4 1.4 15.9 1.7 15.6 1.9 15.3 2.3 15.1 2.4 15.2 2.9 15 3.2 15.1 3.6 14.5 3.9 14.1 4.1 14.6 4.7 14.2 5 13.8 5.2 13.7 5.6 13.7 6 13.5 6.4 12.9 6.6 12.9 6.9 13.1 7.4 12.5 7.6 12.4 7.8 12.3 8.2 12 8.3 12.3 8.9 12 9 11.7 9.1 51.6 106zm-51.6 -106l51.5 40.5 0.2 65.4 -51.6 -106zm-213.3 2288l-5.8 -2181.3 270.7 -0.7 5.8 2181.3 -62.8 114.6 -207.9 -113.9zm270.7 -0.7l0.2 74.6 -63 40 62.8 -114.6z"/>
  </g>
  <g>
   <path fill="#FEFEFE" d="M24652.3 8985.6c309.3,0 314.9,0.2 314.9,-74.4l0 -2433.1c171.8,-91.5 435.1,-131.6 601,-131.6 395.1,-0.2 475.2,177.4 475.2,589.6l0 2049.5c315.1,0 320.7,0.2 320.7,-74.4l0 -2061c0,-538.1 -166.1,-784.3 -784.3,-784.3 -320.7,0 -664.2,85.9 -927.5,200.4l0 2719.3z"/>
   <path id="1" fill="#FEFEFE" fill-rule="nonzero" d="M24831.8 8911.2l270.7 0 0 0 0 8 -0.2 9.7 -0.5 9.8 -1 11.4 -1.9 14 -3.3 15.5 -5.5 17.6 -8.4 19.1 -11.4 19 -14.3 17.8 -17.1 16.2 -18.3 13.1 -17.5 9.7 -16.2 6.9 -15.6 5.3 -14.8 3.9 -14.9 3.1 -14.3 2.2 -13.7 1.7 -14.5 1.4 -14.7 1.1 -15.6 0.9 -16.4 0.7 -17.2 0.5 -18.1 0.4 -19.4 0.3 -20.5 0.2 -22 0.2 -23.4 0.1 -24.9 0.1 -26.5 0 -28.1 0 0 -270.7 28.1 0 26.2 0 24.6 -0.1 22.7 -0.1 21 -0.2 19.6 -0.2 17.8 -0.3 16.3 -0.3 14.5 -0.5 12.7 -0.5 11.1 -0.7 9.5 -0.7 7.6 -0.7 6.3 -0.8 3.6 -0.5 1.1 -0.2 -0.7 0.2 -3.2 1.1 -5.4 2.3 -8.1 4.5 -10.3 7.4 -10.4 9.8 -8.8 10.9 -6.9 11.4 -4.8 10.9 -2.7 8.8 -1.3 5.8 -0.5 3.7 -0.1 0.4 0.1 -2.1 0.1 -3 0 -5.5 0 0zm270.7 -2433.1l0 2433.1 -270.7 0 0 -2433.1 71.7 -119.5 199 119.5zm-270.7 0l0 -81.3 71.7 -38.2 -71.7 119.5zm736.3 -266.9l0.1 270.7 -0.1 0 -13.8 0.1 -14.5 0.3 -15.1 0.5 -15.7 0.8 -16.2 1 -16.6 1.2 -16.8 1.4 -17.2 1.7 -17.7 1.9 -18 2.1 -17.9 2.4 -18.2 2.6 -18.6 2.9 -18.4 3.1 -18.5 3.3 -18.7 3.6 -18.5 3.8 -18.5 4 -18.5 4.3 -18.2 4.5 -17.9 4.7 -17.9 5 -17.4 5.1 -17.2 5.4 -17.1 5.7 -16.4 5.7 -16 6 -15.5 6.1 -14.8 6.4 -14.3 6.4 -13.9 6.7 -13.1 6.7 -127.2 -239 19.7 -10.1 19.9 -9.6 20.3 -9.2 20.7 -8.8 20.9 -8.3 21 -7.9 21.3 -7.5 21.2 -7 21.7 -6.9 21.8 -6.4 21.8 -6.1 22 -5.8 21.9 -5.4 21.9 -5.1 21.9 -4.8 22 -4.5 21.9 -4.2 21.8 -3.9 21.8 -3.6 21.5 -3.3 21.3 -3.1 21.3 -2.7 20.9 -2.5 20.6 -2.3 20.6 -2 20.2 -1.7 19.8 -1.4 19.4 -1.2 19 -0.9 18.7 -0.7 18.2 -0.4 17.9 -0.1 -0.1 0zm610.6 725l-270.7 0 0 0 -0.2 -36.1 -0.7 -34.5 -1.3 -32.9 -1.7 -31.3 -2.3 -29.3 -2.9 -27.6 -3.4 -25.9 -4 -24 -4.5 -22.4 -5 -20.5 -5.4 -18.4 -5.9 -16.9 -6.1 -14.9 -6.5 -13.2 -6.9 -12.1 -7 -10.4 -7.2 -9.2 -7.8 -8.4 -8.5 -7.9 -8.9 -7.2 -10.1 -6.8 -11.4 -6.6 -13.1 -6.3 -14.7 -6 -16.7 -5.5 -18.9 -5.1 -20.9 -4.5 -23 -3.8 -25.3 -3 -27.6 -2.2 -29.8 -1.4 -32.2 -0.4 -0.1 -270.7 40.1 0.5 38.8 1.7 37.6 3 36.3 4.4 35.3 5.8 34.2 7.3 33 8.9 32.2 10.6 31.1 12.5 29.9 14.4 28.7 16.5 27.2 18.5 25.6 20.5 23.6 22.1 21.9 23.9 20 25.6 17.8 26.7 15.8 27.6 14.1 28.8 12.2 29.7 10.7 30.2 9.1 31.1 7.8 31.7 6.6 32.4 5.5 33.2 4.5 34 3.7 34.9 2.7 35.8 2.1 36.6 1.4 37.6 0.8 38.6 0.2 39.8 0 0zm-270.7 2049.5l0 -2049.5 270.7 0 0 2049.5 -135.4 135.4 -135.4 -135.4zm135.4 135.4l-135.4 0 0 -135.4 135.4 135.4zm185.3 -209.8l270.7 0 0 0 0 8 -0.2 9.7 -0.5 9.8 -1 11.4 -1.9 14 -3.5 16.3 -5.7 17.6 -8.5 19 -12 19.4 -14.3 17.6 -17.1 15.9 -18.2 12.9 -17.4 9.4 -16.3 6.9 -15.9 5.3 -14.7 3.8 -14.9 3 -14.4 2.2 -13.7 1.7 -14.6 1.4 -14.9 1.1 -15.7 0.9 -16.6 0.7 -17.5 0.5 -18.4 0.4 -19.7 0.3 -20.9 0.2 -22.4 0.2 -23.9 0.1 -25.4 0.1 -27.1 0 -28.6 0 0 -270.7 28.6 0 26.7 0 25 -0.1 23.1 -0.1 21.6 -0.2 19.9 -0.2 18.1 -0.3 16.6 -0.3 14.8 -0.5 12.9 -0.5 11.4 -0.7 9.8 -0.7 7.8 -0.8 6.6 -0.8 3.9 -0.5 1.3 -0.3 -0.3 0.1 -3.3 1.1 -5.4 2.3 -7.9 4.3 -10.1 7.2 -10.3 9.6 -8.7 10.7 -7.3 11.9 -4.9 10.8 -2.8 8.8 -1.5 6.6 -0.5 3.7 -0.1 0.4 0.1 -2.1 0.1 -3 0 -5.5 0 0zm270.7 -2061l0 2061 -270.7 0 0 -2061 0 0 270.7 0zm-919.7 -649l0 -270.7 0 0 60.2 0.8 57.9 2.3 55.8 3.9 53.7 5.6 51.8 7.3 49.8 9.1 47.8 10.9 46.2 12.9 44.2 14.9 42.5 17.1 40.7 19.3 38.7 21.5 36.8 23.7 34.7 26.1 32.4 28.1 30.2 30.4 27.8 32.4 25.4 34.3 22.8 35.8 20.5 37.4 18.2 38.9 15.9 40 13.8 41.3 12 42.5 10.1 43.6 8.4 44.8 6.9 46 5.4 47.1 4.1 48.4 2.7 49.7 1.7 51 0.5 52.4 -270.7 0 -0.5 -46.8 -1.4 -44.8 -2.4 -42.7 -3.4 -40.5 -4.4 -38.5 -5.4 -36.4 -6.5 -34.2 -7.4 -32.1 -8.4 -30 -9.4 -27.9 -10.2 -25.8 -11.2 -23.8 -12 -22 -13 -20.5 -13.8 -18.7 -15 -17.5 -16.2 -16.3 -17.6 -15.4 -19.2 -14.4 -21.1 -13.6 -23.2 -12.9 -25.3 -12 -27.8 -11.1 -30.4 -10.3 -32.9 -9.2 -35.9 -8.2 -38.6 -7.1 -41.3 -5.8 -44.4 -4.5 -47.3 -3.3 -50.1 -2.1 -53.1 -0.7 0 0zm-792.1 65.1l-270.7 0 81.4 -124.1 26.5 -11.3 26.9 -11.1 27.2 -10.9 27.8 -10.7 28.1 -10.4 28.4 -10.2 28.9 -9.9 29.1 -9.7 29.5 -9.5 29.8 -9.1 30 -8.9 30.5 -8.5 30.6 -8.2 30.7 -7.9 31 -7.6 31.4 -7.3 31.5 -6.9 31.5 -6.5 31.8 -6.1 32 -5.8 32 -5.4 32.1 -5 32.3 -4.5 32.3 -4.2 32.5 -3.6 32.3 -3.2 32.5 -2.8 32.4 -2.3 32.5 -1.8 32.4 -1.3 32.4 -0.8 32.4 -0.2 0 270.7 -27.8 0.2 -28.1 0.7 -28.3 1.1 -28.3 1.6 -28.5 2 -28.6 2.4 -28.7 2.9 -28.6 3.3 -28.7 3.7 -28.8 4.1 -28.7 4.4 -28.7 4.8 -28.6 5.2 -28.4 5.5 -28.6 5.9 -28.2 6.1 -28 6.5 -28 6.9 -27.8 7.2 -27.6 7.4 -27.2 7.7 -27.1 7.9 -26.8 8.2 -26.4 8.4 -26.2 8.7 -25.9 8.9 -25.5 9.1 -25.2 9.3 -24.5 9.4 -24.4 9.8 -23.8 9.8 -23.4 10 81.4 -124.1zm-270.7 0l0 -88.7 81.4 -35.4 -81.4 124.1zm0 2719.3l0 -2719.3 270.7 0 0 2719.3 -135.4 135.4 -135.4 -135.4zm135.4 135.4l-135.4 0 0 -135.4 135.4 135.4z"/>
  </g>
  <g>
   <path fill="#FEFEFE" d="M23433 6065.8c-475.5,0 -1024.8,171.7 -1024.8,1643 0,1150.7 394.8,1335 938.9,1335 418,0 778.5,-144.1 778.5,-281.5 0,-63.2 -11.3,-148.9 -40.1,-223.4 -177.4,125.9 -429.4,194.6 -687,194.6 -406.4,0 -669.8,-137.4 -669.8,-973.2 251.9,-0.2 887.4,-5.8 1368.2,-103.1 40.1,-188.9 57.2,-440.8 57.2,-687 0,-567.2 -223.2,-904.6 -721.1,-904.6zm-28.7 286.1c343.4,0 440.8,223.4 440.8,681.5 0,120 -5.6,246.1 -23,383.5 -320.5,80 -858.7,80.2 -1087.6,80.2 40.1,-1013.5 377.7,-1145.1 669.8,-1145.1z"/>
   <path id="1" fill="#FEFEFE" fill-rule="nonzero" d="M22543.5 7708.9l-270.7 0 0 0 1.7 -137.4 4.8 -130.3 7.9 -123.4 10.9 -116.7 14 -110.2 16.8 -103.9 19.5 -98 22.2 -92.2 24.9 -86.5 27.5 -81.1 30.1 -76 32.6 -70.8 35.1 -65.9 37.5 -61.2 39.8 -56.4 41.9 -51.9 44 -47.3 45.9 -42.8 47.4 -38.5 48.8 -34.2 50 -30 50.7 -26.1 51.4 -22.3 51.6 -18.7 51.7 -15.6 51.8 -12.5 51.4 -9.8 51 -7.5 50.4 -5.3 49.8 -3.6 49.1 -1.8 48.2 -0.6 0 270.7 -41.4 0.5 -41.1 1.6 -40.8 2.9 -40.4 4.2 -39.8 5.8 -39 7.5 -38.2 9.3 -37.5 11.3 -36.7 13.2 -35.7 15.5 -34.9 17.8 -34.1 20.6 -33.3 23.2 -32.6 26.4 -31.9 29.9 -31.1 33.4 -30.5 37.7 -29.6 42 -28.6 46.7 -27.5 51.9 -26.3 57.2 -25 62.8 -23.3 68.7 -21.6 74.8 -19.6 81.1 -17.5 87.7 -15.2 94.4 -12.8 101.3 -10.2 108.5 -7.5 115.7 -4.5 123.2 -1.6 130.9 0 0zm803.5 1199.7l0 270.7 0 0 -53.7 -0.6 -53.2 -1.9 -52.9 -3.5 -52.2 -5.1 -51.9 -7 -51.4 -9.2 -50.7 -11.4 -50.2 -14.1 -49.4 -16.9 -48.6 -20 -47.3 -23.2 -46.2 -26.6 -44.7 -30.2 -42.9 -33.8 -40.9 -37.4 -38.9 -41.1 -36.5 -44.8 -34.2 -48.4 -31.7 -52.1 -29.3 -55.6 -26.8 -59.3 -24.4 -63.1 -22 -66.8 -19.7 -70.8 -17.4 -74.9 -15.1 -79.2 -12.8 -83.5 -10.4 -88.1 -8.2 -92.9 -5.8 -97.7 -3.5 -102.9 -1.2 -108.1 270.7 0 1.1 102 3.4 96.3 5.4 90.6 7.5 85 9.5 79.5 11.3 74.2 13.1 69 14.8 64 16.5 59 17.8 54.3 19.2 49.6 20.4 45.1 21.5 41 22.5 36.9 23.6 33.3 24.3 29.8 25.3 26.7 26.2 24 27.3 21.5 28.4 19.2 29.8 17.2 31.4 15.3 32.7 13.5 34.5 11.7 36.3 10.2 38 8.6 39.6 7.1 41.3 5.5 43 4.3 44.5 2.9 46 1.7 47.4 0.5 0 0zm643.2 -146.1l270.7 0 0 0 -2.8 34.5 -7.7 32.2 -11.7 29.8 -14.8 26.9 -16.6 23.7 -18.4 21.8 -19.9 19.8 -20.9 18.2 -22.2 17 -23.1 15.8 -24.3 15 -25.5 14.3 -26.7 13.5 -27.5 12.8 -28.6 12.2 -29.8 11.6 -30.9 11.1 -31.8 10.4 -32.7 9.8 -33.7 9.2 -34.7 8.6 -35.4 8 -36.5 7.4 -37.1 6.6 -37.9 6.1 -38.7 5.2 -39.2 4.6 -40 3.8 -40.5 3 -40.8 2.1 -41.5 1.3 -41.9 0.5 0 -270.7 36.1 -0.4 35.8 -1.2 35.5 -1.9 34.9 -2.5 34.2 -3.3 33.7 -3.9 33 -4.5 32.3 -5.1 31.6 -5.7 30.5 -6.2 29.7 -6.7 28.6 -7.1 27.5 -7.6 26.4 -7.9 25.1 -8.2 23.7 -8.5 22.4 -8.8 20.9 -8.9 19.4 -8.9 17.5 -8.9 15.7 -8.8 14 -8.6 11.9 -8.2 9.7 -7.5 7.6 -6.6 5.3 -5.2 3 -3.6 1.3 -1.8 -0.6 1.1 -1.6 4.1 -1.5 6.3 -0.7 8.7 0 0zm173.6 -113l-156.6 -220.7 204.6 61.6 3.3 9 3.2 8.8 3.2 9.4 2.8 8.8 2.8 8.8 2.7 9.4 2.6 9 2.2 8.3 2.4 9.3 2.1 8.9 2.1 8.9 1.9 8.9 1.8 8.9 1.7 8.8 1.6 8.2 1.6 9.3 1.4 8.8 1.2 8 1.3 8.8 1 8 1.1 8.6 0.9 8.5 0.8 7.9 0.7 8.4 0.7 8.4 0.5 7.8 0.5 7.6 0.4 8.2 0.3 7.5 0.2 8.1 0.1 7.5 0.1 7.3 -270.7 0 -0.1 -4.7 -0.1 -4.8 -0.1 -4.4 -0.2 -5.1 -0.2 -4.7 -0.4 -5.5 -0.3 -5.6 -0.4 -5.1 -0.5 -5.2 -0.6 -5.9 -0.5 -5.4 -0.7 -5.5 -0.8 -6.1 -0.8 -5.5 -1 -6.3 -0.9 -5.7 -0.9 -5.1 -1.2 -6.4 -1.1 -5.9 -1.3 -5.8 -1.2 -5.8 -1.4 -5.8 -1.4 -5.7 -1.4 -5.2 -1.7 -6.3 -1.5 -5.5 -1.6 -5.1 -1.7 -5.6 -1.8 -5.5 -1.7 -4.9 -1.9 -5.3 -1.9 -5.1 204.6 61.6zm-156.6 -220.7l141.9 -100.6 62.7 162.2 -204.6 -61.6zm-608.7 440.3l0 -270.7 0 0 22 -0.2 21.7 -0.5 21.7 -0.9 21.8 -1.3 21.8 -1.6 21.6 -2 21.2 -2.3 21.3 -2.7 21.1 -3 21 -3.4 20.9 -3.8 20.6 -4 20.3 -4.4 20.4 -4.7 20 -5.1 19.7 -5.3 19.4 -5.6 19.3 -6 19 -6.3 18.6 -6.6 18.3 -6.9 18 -7.2 17.8 -7.6 17.3 -7.6 16.8 -7.9 16.6 -8.3 16.1 -8.5 15.7 -8.8 15.6 -9.1 14.8 -9.1 14.3 -9.4 14.2 -9.7 156.6 220.7 -19.6 13.5 -20.2 13.2 -20.6 12.7 -20.6 12.1 -21.3 11.9 -21.6 11.3 -21.8 10.9 -22.4 10.6 -22.5 10 -22.6 9.5 -23 9.2 -23.3 8.8 -23.6 8.3 -23.9 7.9 -24 7.5 -24.4 7.2 -24.6 6.6 -24.6 6.1 -24.8 5.8 -25.1 5.4 -25.3 4.9 -25.2 4.5 -25.6 4.1 -25.6 3.7 -25.8 3.3 -26.1 2.8 -26 2.3 -25.9 2 -26.2 1.6 -26.4 1.1 -26.5 0.7 -26.3 0.2 0 0zm-670 -1243.9l0.2 270.7 135.2 -135.4 0.8 73.6 2.1 69.2 3.6 65.1 4.9 61 6.3 56.9 7.6 53.1 8.7 49.1 9.8 45.3 10.8 41.6 11.8 37.9 12.6 34.5 13.3 31.1 13.9 27.8 14.5 24.9 14.8 22.2 15.2 19.4 15.9 17.4 16.2 15.4 16.9 13.8 17.7 12.3 18.5 11 19.8 10 21 8.9 22.5 7.9 24 6.9 25.5 5.8 27.2 4.9 28.6 3.9 30.3 2.9 31.8 2.1 33.1 1.2 34.5 0.4 0 270.7 -40.8 -0.5 -40.5 -1.4 -40.1 -2.6 -39.8 -3.9 -39.6 -5.5 -39.1 -7 -38.9 -8.9 -38.3 -11 -37.8 -13.2 -37.3 -15.7 -36.4 -18.3 -35.5 -21 -34 -23.9 -32.7 -26.6 -31.1 -29.5 -29.1 -32.2 -27.4 -35.1 -25.2 -37.5 -23.2 -39.9 -21.3 -42.6 -19.3 -45.1 -17.4 -47.5 -15.6 -50.3 -13.8 -53 -12.2 -55.8 -10.4 -58.8 -8.8 -61.7 -7.2 -65 -5.5 -68.4 -4 -71.8 -2.4 -75.4 -0.8 -79.1 135.2 -135.4zm-135.2 135.4l0 -135.2 135.2 -0.1 -135.2 135.4zm1371.2 -131.2l264.9 56.2 -105.6 104.6 -47.5 9.2 -48.1 8.6 -48.7 8.1 -49.3 7.6 -49.7 7 -49.9 6.6 -50.1 6.1 -50.3 5.7 -50.3 5.2 -50.3 4.8 -50.3 4.5 -49.8 4 -49.5 3.8 -49.3 3.3 -48.6 3 -47.9 2.7 -47.2 2.4 -46.6 2.2 -45.6 1.8 -44.5 1.7 -43.6 1.4 -42.2 1.2 -41 1.1 -39.7 0.9 -38.1 0.7 -36.6 0.5 -34.8 0.4 -33 0.4 -31.3 0.2 -29.3 0.1 -27 0.1 -24.9 0.1 -0.2 -270.7 24.6 -0.1 26.7 -0.1 28.5 -0.1 30.5 -0.2 32.4 -0.4 34.2 -0.4 35.7 -0.5 37.3 -0.7 38.7 -0.8 40.1 -1.1 41.3 -1.2 42.3 -1.4 43.5 -1.6 44.4 -1.8 45.1 -2.1 45.9 -2.4 46.6 -2.6 47.2 -2.9 47.4 -3.2 47.8 -3.6 48.2 -3.9 48 -4.2 48.2 -4.7 48.2 -5 47.9 -5.4 47.7 -5.8 47.2 -6.2 46.7 -6.7 46 -7 45.4 -7.6 44.5 -7.9 43.5 -8.5 -105.6 104.6zm264.9 56.2l-18.4 86.9 -87.2 17.6 105.6 -104.6zm-210.5 -715.1l270.7 0 0 0 -0.1 23.6 -0.1 23.8 -0.3 23.9 -0.4 23.5 -0.5 23.8 -0.6 23.8 -0.7 23.7 -0.9 23.6 -0.8 23.4 -1.1 23.7 -1.1 23.5 -1.3 23.2 -1.3 23.1 -1.5 23.3 -1.7 23 -1.7 22.8 -1.8 22.7 -2 22.8 -2.1 22.4 -2.2 22.1 -2.4 22.2 -2.6 21.8 -2.6 21.6 -2.8 21.4 -2.9 21.1 -3.2 21.1 -3.2 20.6 -3.4 20.5 -3.5 20.1 -3.7 20 -3.9 19.8 -3.9 19.3 -264.9 -56.2 3.5 -16.5 3.3 -16.7 3.1 -17.2 3.1 -17.7 2.9 -18.1 2.9 -18.5 2.7 -18.6 2.6 -19.1 2.6 -19.4 2.4 -19.6 2.3 -20 2.1 -20 2.1 -20.6 2 -20.7 1.8 -20.7 1.7 -21 1.6 -21.5 1.6 -21.5 1.4 -21.4 1.3 -22 1.2 -22 1.1 -22.1 1 -21.9 0.8 -22.4 0.8 -22.4 0.7 -22.4 0.6 -22.4 0.4 -22.4 0.4 -22.8 0.3 -22.4 0.1 -22.5 0.1 -22.5 0 0zm-585.8 -769.2l0 -270.7 0 0 51.8 1.1 50.5 3.3 49.3 5.7 47.9 7.9 46.6 10.3 45.3 12.6 44 15 42.5 17.5 40.8 19.7 39.2 22 37.6 24.4 35.7 26.7 33.9 28.7 32 30.8 29.9 32.7 28.1 34.6 26.1 36.5 23.9 37.9 22.1 39.6 20.1 41 18.3 42.3 16.4 43.8 14.7 45.1 12.9 46.4 11.3 47.5 9.7 48.8 8.1 50.1 6.5 51.2 5.1 52.4 3.5 53.6 2.1 54.8 0.7 55.9 -270.7 0 -0.6 -49.1 -1.8 -47.5 -3 -45.9 -4.2 -44.3 -5.4 -42.6 -6.6 -40.8 -7.8 -39.2 -8.9 -37.5 -10 -35.7 -11 -33.9 -12.1 -32.1 -13.1 -30.4 -14 -28.6 -15 -26.8 -15.9 -25.2 -16.8 -23.5 -17.7 -21.9 -18.7 -20.5 -19.7 -19 -20.7 -17.6 -21.8 -16.2 -23.1 -15 -24.4 -13.8 -25.8 -12.5 -27.2 -11.2 -28.9 -9.8 -30.7 -8.5 -32.5 -7.2 -34.2 -5.7 -36.1 -4.1 -38.1 -2.5 -39.9 -0.9 0 0zm547.4 832.3l-270.7 0 0 0 -0.3 -40.3 -0.8 -38.8 -1.4 -37.2 -2 -35.5 -2.6 -33.7 -3.3 -32.2 -3.8 -30.6 -4.4 -28.7 -5 -27 -5.6 -25.1 -6.1 -23.5 -6.6 -21.6 -7.2 -19.9 -7.5 -18.2 -7.8 -16.3 -8.1 -14.7 -8.3 -13.1 -8.7 -11.7 -9.1 -10.6 -9.2 -9.4 -9.6 -8.3 -10.4 -7.8 -11.2 -7.1 -12 -6.5 -13.5 -6 -14.9 -5.5 -16.3 -4.7 -18.2 -4.2 -20 -3.3 -21.9 -2.5 -23.8 -1.6 -25.7 -0.5 0 -270.7 37.3 0.8 36.3 2.4 35.5 4.1 34.6 5.8 33.8 7.6 33 9.7 31.8 11.7 30.9 13.7 29.7 15.9 28.3 17.9 26.8 20 25.2 21.9 23.4 23.8 21.3 25 19.7 26.7 17.9 28 16.1 29.1 14.5 30.2 12.8 30.9 11.4 31.9 10.1 33 8.9 33.7 7.6 34.8 6.7 35.7 5.6 36.6 4.8 37.4 3.9 38.6 3.1 39.8 2.3 40.8 1.6 41.9 1 42.9 0.3 44.2 0 0zm-125.5 514.7l-65.6 -262.6 -101.5 114.4 1.5 -12.2 1.4 -12.2 1.4 -12.2 1.3 -11.7 1.3 -12.3 1.3 -12 1.1 -11.6 1.1 -11.9 1 -11.7 1 -11.7 1 -11.9 0.9 -11.6 0.8 -11.2 0.8 -11.7 0.7 -11.7 0.7 -11 0.6 -11.2 0.6 -11.9 0.5 -11.2 0.5 -10.7 0.4 -11.4 0.4 -11.3 0.4 -11.3 0.4 -10.9 0.2 -10.9 0.2 -11.4 0.2 -10.8 0.1 -10.7 0.1 -11.4 0.1 -11 0.1 -10.6 0 -10.9 270.7 0 0 11.6 -0.1 12 -0.1 11.7 -0.1 11.4 -0.1 12 -0.2 12.2 -0.2 11.4 -0.3 12.2 -0.4 12.3 -0.4 11.9 -0.4 12 -0.5 12 -0.5 12.8 -0.7 12.5 -0.6 11.9 -0.6 12.5 -0.8 12.9 -0.8 12.3 -0.8 12.3 -0.9 13 -1 12.9 -1 12.5 -1.1 12.9 -1.1 12.9 -1.2 12.9 -1.3 13.4 -1.4 13.1 -1.4 12.9 -1.4 13.5 -1.6 13.2 -1.6 13.4 -1.7 13.5 -101.5 114.4zm101.5 -114.4l-11.6 91.9 -89.9 22.4 101.5 -114.4zm-1357.1 57.9l270.5 10.7 -135.2 -140.7 22.4 0 23.9 0 25.4 -0.1 27.1 -0.1 28.4 -0.1 29.6 -0.2 30.9 -0.3 31.9 -0.4 32.9 -0.5 33.9 -0.7 34.7 -0.8 35.3 -1 36 -1.1 36.4 -1.3 37.1 -1.6 37.1 -1.7 37.4 -2 37.6 -2.3 37.6 -2.4 37.5 -2.7 37.1 -3 36.8 -3.3 36.5 -3.6 36.1 -3.9 35.4 -4.2 34.6 -4.6 33.8 -4.8 32.7 -5.2 31.7 -5.5 30.6 -5.9 29 -6.3 27.6 -6.5 65.6 262.6 -33.7 8 -34.6 7.3 -35.4 6.9 -36.1 6.4 -36.8 5.8 -37.4 5.4 -38 4.9 -38.4 4.6 -38.7 4.2 -39.1 3.9 -39.5 3.5 -39.4 3.1 -39.4 2.9 -39.4 2.6 -39.2 2.3 -39.2 2.1 -38.8 1.8 -38.2 1.6 -37.8 1.4 -37.2 1.1 -36.5 1 -35.7 0.8 -34.7 0.8 -33.9 0.5 -32.7 0.4 -31.6 0.3 -30.3 0.2 -28.9 0.1 -27.4 0.1 -26 0.1 -24.2 0 -22.4 0 -135.2 -140.7zm135.2 140.7l-140.8 0 5.5 -140.7 135.2 140.7zm669.8 -1415.8l0 270.7 0 0 -23.3 0.4 -23 1.1 -22.6 1.9 -22.1 2.8 -21.4 3.8 -21 4.7 -20.4 5.8 -19.9 6.9 -19.4 8.2 -19.1 9.5 -18.9 11 -18.5 12.6 -18.5 14.6 -18.4 16.7 -18.4 19.1 -18.4 21.8 -18.2 24.6 -18.1 27.9 -17.8 31.2 -17.5 34.9 -17.1 38.6 -16.4 42.6 -15.6 46.7 -14.8 51 -14 55.5 -12.8 59.8 -11.6 64.6 -10.4 69.4 -9 74.2 -7.6 79.2 -6.1 84.3 -4.5 89.7 -270.5 -10.7 4.7 -95.3 6.6 -90.6 8.2 -85.8 10 -81.3 11.5 -76.9 13.1 -72.8 14.7 -68.9 16.2 -64.8 17.8 -61.2 19.3 -57.5 20.8 -54.1 22.3 -50.7 23.8 -47.4 25.3 -44.4 26.7 -41.1 28.2 -38.2 29.7 -35.2 30.9 -32.2 32.1 -29.1 33 -26.2 34.1 -23.3 34.6 -20.3 35.1 -17.5 35.3 -14.8 35.3 -12.4 35.2 -10 34.8 -7.9 34.5 -6 33.8 -4.2 33.1 -2.9 32.5 -1.6 31.7 -0.5 0 0z"/>
  </g>
  <g>
   <path fill="#FEFEFE" d="M21125.7 6065.8c-532.3,0 -944.6,320.7 -944.6,1036.2 0,366.5 80.1,704.4 360.7,876.1 -194.9,154.5 -360.7,355 -360.7,503.7 0,137.3 143.2,234.7 377.9,303.6 -246.1,171.5 -469.5,441.6 -469.5,722.2 0,297.5 143,606.8 904.4,606.8 761.6,0 1110.8,-418 1110.8,-858.7 0,-453.4 -343.4,-573.5 -767.1,-630.7 -469.4,-57.4 -830.2,-120.3 -830.2,-234.9 0,-85.7 120.3,-229 240.5,-326.3 91.7,28.6 200.4,40.1 326.3,40.1 664.2,0 927.5,-463.6 927.5,-1053.3 0,-349.3 -120,-583.9 -314.9,-709.9 108.9,22.7 223.4,34.5 309.3,34.5 85.7,-0.2 131.6,-40.1 131.6,-126 0,-74.5 -34.3,-148.9 -34.3,-148.9l-710 0c-91.7,-23 -200.4,-34.3 -257.6,-34.3zm17.1 2811.1c412.3,40.1 641.2,103.1 641.2,418.9 0,251.9 -246.1,526.7 -761.4,526.7 -515.1,-0.2 -612.5,-160.3 -612.5,-377.9 0,-217.6 206.1,-464.6 412,-607.8 97.4,16.9 206.2,28.7 320.7,40.1zm-28.7 -2564.8c360.7,0 572.5,206 572.5,675.4 0,486.6 -183.1,858.9 -589.7,858.9 -509.5,-0.2 -589.7,-332 -589.7,-750 0,-549.6 274.8,-784.3 606.9,-784.3z"/>
   <path id="1" fill="#FEFEFE" fill-rule="nonzero" d="M20316.4 7102l-270.7 0 0 0 1.3 -71 3.8 -68.8 6.4 -66.7 8.9 -64.8 11.4 -62.7 13.8 -60.6 16.3 -58.6 18.8 -56.5 21 -54.3 23.4 -52.2 25.8 -50.1 28 -47.8 30.2 -45.6 32.4 -43.2 34.3 -40.8 36.3 -38.5 38.2 -36.1 40.1 -33.7 41.6 -31.1 43.2 -28.7 44.7 -26.3 45.9 -23.7 47.2 -21.3 48.4 -19 49.4 -16.6 50.4 -14.3 51.3 -11.9 52.1 -9.7 52.8 -7.5 53.6 -5.3 54.1 -3.1 54.7 -1.1 0 270.7 -44.4 0.8 -43.4 2.5 -42.4 4.2 -41.4 5.8 -40.4 7.5 -39.1 9.1 -37.9 10.8 -37 12.3 -35.5 14 -34.4 15.6 -33.3 17.2 -31.8 18.7 -30.6 20.4 -29.5 22.1 -28.1 23.7 -26.9 25.4 -25.7 27.2 -24.4 29 -23.1 30.9 -21.8 32.9 -20.5 35 -19 37 -17.6 39.2 -16.2 41.5 -14.5 43.8 -12.8 46 -11.1 48.5 -9.2 51 -7.4 53.4 -5.3 55.9 -3.3 58.4 -1.1 60.9 0 0zm309.5 982.2l-168.3 -212.1 13.5 221.5 -31.1 -20 -29.7 -21.2 -28.5 -22.4 -27.1 -23.6 -25.8 -24.6 -24.4 -25.5 -23.1 -26.4 -21.9 -27.4 -20.6 -28.3 -19.1 -28.8 -18 -29.5 -16.8 -30.3 -15.7 -30.8 -14.5 -31.4 -13.4 -31.7 -12.3 -32.3 -11.3 -32.9 -10.3 -33 -9.4 -33.5 -8.5 -33.8 -7.6 -34.2 -6.7 -34.5 -6 -34.8 -5.2 -34.8 -4.5 -35.1 -3.8 -35.4 -3.2 -35.6 -2.5 -35.7 -1.9 -35.8 -1.3 -36 -0.8 -36.1 -0.2 -36.2 270.7 0 0.2 32.4 0.7 32 1.2 31.7 1.7 31.4 2.1 30.9 2.7 30.6 3.2 30.1 3.8 29.6 4.4 29.2 4.9 28.6 5.5 27.9 6.1 27.3 6.7 26.8 7.3 26.2 7.9 25.5 8.5 24.6 9.2 24 9.8 23.4 10.4 22.5 11 21.8 11.7 21 12.4 20.3 13.1 19.6 13.6 18.7 14.4 17.9 15.1 17.4 16 16.7 16.6 15.9 17.5 15.1 18.5 14.5 19.4 13.9 20.3 13.1 13.5 221.5zm-13.5 -221.5l165.2 101.1 -151.7 120.4 -13.5 -221.5zm-296 619.2l-270.7 0 0 0 0.8 -23.1 2.3 -22.7 3.6 -22.5 4.8 -21.9 5.8 -21.4 6.9 -21.2 7.8 -21.1 8.6 -20.5 9.3 -20.1 10.1 -20.1 10.9 -19.9 11.4 -19.4 12 -19.4 12.8 -19.4 13.2 -19 14 -19.1 14.4 -18.8 14.8 -18.5 15.3 -18.5 15.7 -18.2 16.2 -18.2 16.8 -18.1 17.1 -17.8 17.3 -17.6 17.7 -17.4 18.2 -17.3 18.4 -17.1 18.7 -16.8 18.9 -16.5 19.1 -16.2 19.4 -16.1 19.7 -15.9 168.3 212.1 -16.7 13.4 -16.5 13.7 -16.5 14 -16.2 14.1 -15.9 14.2 -15.4 14.3 -15.1 14.4 -14.8 14.7 -14.5 14.6 -14 14.7 -13.5 14.6 -13 14.5 -12.6 14.7 -12.1 14.5 -11.6 14.5 -10.9 14.1 -10.1 14 -9.7 14 -8.9 13.4 -8.2 13.3 -7.7 13 -6.7 12.4 -6.1 12 -5.4 11.6 -4.6 10.9 -3.8 10 -3 9.5 -2.4 8.9 -1.7 7.9 -1.1 6.7 -0.6 6.1 -0.2 5 0 0zm320 414.6l-154.8 -222.2 39.3 240.9 -23.6 -7.1 -23 -7.2 -22.8 -7.6 -22.2 -7.8 -21.6 -8 -21.3 -8.3 -21 -8.6 -20.3 -9 -19.6 -9.1 -19.7 -9.7 -19 -10 -18.4 -10.3 -18 -10.7 -17.5 -11.3 -17.2 -11.8 -16.3 -12.2 -15.9 -12.6 -15.5 -13.5 -14.8 -14.1 -14.2 -14.7 -13.5 -15.5 -12.8 -16.2 -11.8 -16.9 -10.9 -17.6 -10 -18.5 -8.9 -19.3 -7.6 -19.8 -6.4 -20.5 -4.9 -20.9 -3.6 -21.2 -2.1 -21.6 -0.7 -21.7 270.7 0 0.1 3.8 0.4 3.4 0.5 3.3 0.8 3.2 1 3.2 1.3 3.5 1.6 3.5 2.1 3.8 2.7 4.3 3.2 4.6 3.8 4.9 4.5 5.1 5.4 5.5 6 5.7 6.9 6 7.9 6.3 8.7 6.4 9.3 6.4 10.3 6.5 11.1 6.7 12.2 6.7 12.6 6.7 13.4 6.6 14.6 6.8 15.1 6.6 15.6 6.5 16.5 6.4 17.4 6.4 17.9 6.4 18.4 6.1 19.4 6.1 20 6 39.3 240.9zm-39.3 -240.9l271.1 79.5 -231.8 161.5 -39.3 -240.9zm-372.2 852.1l-270.7 0 0 0 0.8 -32.9 2.4 -32.6 3.9 -32.4 5.4 -32.1 6.8 -31.5 8 -31.2 9.4 -30.8 10.4 -30.3 11.6 -29.9 12.6 -29.3 13.7 -29 14.7 -28.5 15.5 -28 16.5 -27.6 17.2 -27 17.9 -26.5 18.7 -26.1 19.4 -25.6 20.1 -25.1 20.6 -24.4 21.2 -24.1 21.8 -23.5 22.1 -23 22.8 -22.5 23.1 -21.9 23.5 -21.3 23.8 -20.7 24.1 -20.3 24.6 -19.7 24.7 -19.1 25 -18.5 25.1 -17.9 154.8 222.2 -20.9 14.8 -20.6 15.3 -20.5 15.9 -20.3 16.3 -20 16.8 -19.9 17.3 -19.3 17.5 -19 18 -18.4 18.2 -18.1 18.7 -17.6 19 -17 19.3 -16.5 19.6 -15.8 19.7 -15.1 20 -14.4 20.1 -13.8 20.3 -13.1 20.5 -12.1 20.3 -11.4 20.7 -10.6 20.5 -9.7 20.6 -8.9 20.7 -7.9 20.4 -7.1 20.5 -6.1 20.3 -5.2 20.3 -4.3 20.2 -3.3 19.9 -2.4 19.9 -1.4 19.7 -0.5 19.7 0 0zm769.1 471.5l0 270.7 0 0 -73.1 -1 -69.9 -2.7 -66.7 -4.7 -63.6 -6.5 -60.6 -8.1 -57.8 -10 -54.9 -11.6 -52.4 -13.4 -49.7 -15.1 -47 -16.8 -44.7 -18.5 -42.2 -20.2 -39.8 -21.8 -37.2 -23.4 -34.9 -25 -32.3 -26.5 -30.1 -28 -27.5 -29.3 -24.9 -30.3 -22.5 -31.4 -20 -32.2 -17.6 -32.9 -15.3 -33.3 -13.1 -33.5 -11 -33.9 -9.1 -33.7 -7.3 -33.7 -5.7 -33.6 -4.2 -33.3 -2.8 -32.9 -1.6 -32.7 -0.5 -32.3 270.7 0 0.4 23.6 1.1 23.3 2 22.8 2.7 22.3 3.6 21.6 4.6 21 5.5 20.6 6.4 19.6 7.5 19.2 8.5 18.6 9.5 17.8 10.8 17.4 12.1 16.9 13.6 16.6 15.1 16.1 16.9 15.8 19 15.5 21.2 15.1 23.6 14.8 25.9 14.3 28.7 13.7 31.7 13.1 34.8 12.3 37.7 11.5 41 10.4 44.5 9.4 47.8 8.2 51.3 6.9 55 5.5 58.4 4.1 62.2 2.5 66.1 0.8 0 0zm975.4 -723.4l270.7 0 0 0 -1.2 48 -3.6 47.8 -6 47.6 -8.5 47.3 -10.9 46.9 -13.4 46.4 -15.9 45.7 -18.4 45 -20.9 44.2 -23.6 43.4 -26 42.2 -28.5 41.1 -31.1 39.8 -33.5 38.5 -36.1 37.2 -38.5 35.4 -40.8 33.9 -43.3 32.1 -45.7 30.4 -48.1 28.4 -50.1 26.5 -52.6 24.6 -55 22.4 -57.1 20.2 -59.4 18.1 -61.6 15.8 -63.8 13.6 -66 11.2 -68.3 8.9 -70.5 6.3 -72.7 3.9 -74.9 1.3 0 -270.7 65.5 -1.1 62.9 -3.3 60.3 -5.4 57.7 -7.5 55.3 -9.4 52.7 -11.2 50.3 -12.9 47.8 -14.5 45.5 -16.2 43 -17.5 40.6 -19 38.6 -20.3 36.2 -21.4 33.9 -22.5 31.8 -23.7 29.8 -24.7 27.8 -25.6 25.6 -26.4 23.8 -27.4 22 -28.2 20 -28.9 18.2 -29.6 16.4 -30.2 14.6 -30.9 12.9 -31.5 11.2 -32.1 9.5 -32.6 7.7 -33.2 6 -33.6 4.2 -33.8 2.6 -34.2 0.8 -34.5 0 0zm-648.3 -496.3l32.9 -268.7 1.7 0.2 41 5.8 40.8 6.3 40.5 6.7 39.9 7.4 39.7 8 39.1 8.8 38.6 9.5 38.3 10.4 37.8 11.4 37 12.5 36.4 13.5 35.8 14.8 35 16.1 34.4 17.6 33.5 19.1 32.4 20.7 31.3 22.5 30.2 24.3 28.9 26.1 27.4 28.1 25.8 30.1 23.9 32 21.8 33.7 19.9 35.7 17.6 37.4 15.3 39.1 12.9 40.8 10.6 42.2 8.2 43.8 5.9 45.3 3.4 46.6 1.2 48.1 -270.7 0 -0.8 -35 -2.4 -32.6 -3.9 -30.3 -5.3 -28.1 -6.6 -26.2 -7.7 -24.3 -8.9 -22.5 -9.8 -21.1 -10.9 -19.6 -12.1 -18.6 -12.9 -17.5 -14.2 -16.5 -15.4 -15.9 -16.7 -15.1 -18 -14.5 -19.5 -13.9 -20.9 -13.4 -22.1 -12.7 -23.7 -12.1 -25.1 -11.6 -26.4 -10.9 -27.9 -10.3 -29 -9.8 -30.2 -9.1 -31.5 -8.6 -32.7 -8 -33.6 -7.6 -34.6 -7 -35.5 -6.6 -36.3 -6.1 -37.2 -5.7 -38 -5.3 1.7 0.2zm32.9 -268.7l1.7 0.2 2 0.3 -3.7 -0.5zm-982 -100.6l270.7 0 0 0 -1.6 -15.9 -4.2 -14 -5.2 -10.4 -4.4 -6.2 -2.1 -2.3 0.8 0.7 3.9 2.7 7 4.2 9.7 5.1 12.4 5.7 14.8 6.1 17.1 6.3 19.1 6.4 21.2 6.4 23.1 6.5 24.9 6.4 26.5 6.4 28 6.3 29.5 6.2 31.1 6.1 32.4 6.1 33.6 6 34.8 5.8 35.9 5.8 37.1 5.7 38.1 5.7 39.1 5.5 40.1 5.5 41 5.4 41.8 5.4 42.6 5.4 43.3 5.4 -32.9 268.7 -44.1 -5.5 -43.3 -5.4 -42.8 -5.5 -42 -5.7 -41.3 -5.7 -40.5 -5.8 -39.7 -5.9 -38.8 -6 -37.9 -6.1 -37 -6.3 -36 -6.4 -34.9 -6.6 -33.9 -6.7 -32.9 -6.9 -31.9 -7.2 -30.6 -7.5 -29.6 -7.6 -28.6 -8 -27.5 -8.3 -26.4 -8.9 -25.5 -9.4 -24.4 -10 -23.6 -10.8 -23 -12 -22.1 -13.2 -21.6 -15.1 -21 -17.7 -20.2 -21.2 -18.6 -25.6 -15.5 -30.5 -10.4 -34.6 -3.7 -37.1 0 0zm416.1 -455.5l-80.5 258.4 125.4 -24 -9.8 8 -9.8 8.3 -9.7 8.4 -9.8 8.8 -9.8 9 -9.7 9.1 -9.5 9.1 -9.1 9.1 -9.2 9.4 -8.9 9.5 -9 9.7 -8.4 9.3 -7.9 9.2 -8 9.5 -7.5 9.1 -7 9 -6.9 9.2 -6.3 8.6 -5.5 8 -5.3 8.2 -5.1 8.2 -4.1 6.9 -3.6 6.7 -3.4 6.7 -2.6 5.5 -1.8 4.4 -1.4 3.6 -0.8 2.8 -0.5 2 -0.1 0.2 0.2 -1.7 0.1 -2.9 -270.7 0 0.8 -19.3 2.2 -18.6 3.4 -17.4 4.1 -16.3 5 -15.9 5.7 -15.6 6.4 -15.3 6.8 -14.5 7 -13.7 7.7 -14.2 8.3 -14.1 8.2 -13.2 8.8 -13.4 9.5 -13.7 9.5 -13.2 9.7 -12.7 10.1 -13.1 10.6 -12.9 10.5 -12.5 11.2 -12.9 11.3 -12.5 11.2 -12.1 11.6 -12.2 11.8 -12.1 12.1 -12.1 12.2 -11.7 12.2 -11.5 12.3 -11.3 12.4 -11.2 12.7 -11 12.7 -10.7 12.8 -10.5 125.4 -24zm-125.4 24l56.2 -45.5 69.2 21.5 -125.4 24zm411.4 10l0 270.7 0 0 -12.5 -0.1 -12.3 -0.1 -12.6 -0.2 -12.2 -0.3 -12.5 -0.3 -12.3 -0.5 -12 -0.5 -11.8 -0.6 -11.7 -0.7 -12 -0.7 -11.9 -0.8 -11.9 -1 -11.7 -1.1 -11.4 -1.1 -11.2 -1.2 -11.6 -1.3 -11.9 -1.5 -11.3 -1.6 -10.9 -1.6 -11.2 -1.7 -11.2 -1.8 -11.1 -1.9 -11.1 -2.1 -10.9 -2.1 -10.9 -2.3 -10.8 -2.3 -11 -2.6 -10.6 -2.6 -10.6 -2.8 -10.4 -2.9 -10.3 -2.9 -10.7 -3.3 80.5 -258.4 6.6 2 7.2 2.1 7.3 2 7.3 1.8 7.5 1.9 7.2 1.7 7.7 1.7 7.9 1.6 8 1.6 8 1.5 8.2 1.4 8.3 1.4 8.5 1.3 9 1.3 8.7 1.2 8.4 1 8.9 1 9.4 1 9.6 1 9.2 0.8 9.4 0.7 9.5 0.7 9.7 0.6 10.2 0.5 10.3 0.5 10.3 0.5 10.2 0.4 10.2 0.3 10.7 0.2 10.5 0.2 11 0.1 11 0.1 0 0zm792.1 -918l270.7 0 0 0 -0.8 58.8 -2.5 58.1 -4.2 57.5 -6 56.8 -7.9 56 -9.7 55 -11.6 54.2 -13.7 53.2 -15.6 52.2 -17.8 51.2 -19.9 49.8 -22.1 48.7 -24.4 47.3 -26.7 45.9 -29 44.2 -31.5 42.6 -33.9 40.7 -36.4 38.8 -38.9 36.7 -41.3 34.5 -43.6 32 -46 29.7 -48.4 27.1 -50.6 24.4 -52.8 21.6 -54.9 18.9 -56.9 16 -59 13.2 -61.2 10.3 -63.1 7.3 -65.1 4.4 -67.1 1.5 0 -270.7 55.1 -1.3 52.5 -3.6 49.8 -5.8 47.2 -7.9 44.8 -10 42.5 -12 40.1 -13.8 38 -15.7 35.9 -17.2 33.7 -18.9 32 -20.6 30.2 -22.2 28.5 -23.7 26.8 -25.4 25.4 -27.1 23.8 -28.6 22.4 -30.2 20.9 -31.9 19.6 -33.6 18.1 -35.1 16.6 -36.7 15.3 -38.4 13.8 -39.8 12.4 -41.3 10.9 -42.8 9.5 -44.2 8 -45.5 6.6 -46.7 5.1 -47.9 3.6 -49 2.1 -50.1 0.7 -51 0 0zm-151.9 -842.4l-55.3 265 101.2 -246.1 22.1 14.8 21.5 15.7 20.9 16.3 20.5 17.2 19.8 17.9 19.3 18.8 18.7 19.6 17.9 20.3 17.4 21 16.7 21.9 15.9 22.3 15.3 23.1 14.7 24 13.8 24.5 13.1 25 12.5 25.9 11.6 26.4 11 27.1 10.1 27.7 9.5 28.3 8.7 29 7.9 29.5 7.2 30.1 6.4 30.6 5.7 31.2 5 32.1 4.1 32.4 3.4 32.9 2.7 33.6 1.9 34.3 1.1 34.7 0.4 35.4 -270.7 0 -0.3 -29.5 -1 -28.7 -1.6 -27.8 -2.1 -27.2 -2.8 -26.6 -3.3 -25.7 -3.8 -24.8 -4.5 -24.3 -4.9 -23.5 -5.4 -22.7 -6 -22.1 -6.3 -21.2 -6.9 -20.6 -7.3 -19.7 -7.8 -19.2 -8.2 -18.5 -8.5 -17.8 -9 -17.2 -9.3 -16.5 -9.7 -15.7 -10.1 -15.3 -10.5 -14.8 -10.7 -14 -11.2 -13.5 -11.5 -13 -11.8 -12.4 -12.2 -11.9 -12.6 -11.4 -12.9 -10.9 -13.4 -10.4 -13.7 -9.9 -14 -9.4 101.2 -246.1zm-101.2 246.1l-610.3 -394.6 711.5 148.5 -101.2 246.1zm382.6 -214.5l0.6 270.7 -0.3 0 -9.1 -0.1 -9.2 -0.1 -9.9 -0.2 -9.4 -0.2 -10.1 -0.4 -9.7 -0.4 -9.8 -0.5 -9.9 -0.6 -10 -0.6 -10.6 -0.7 -10.2 -0.8 -10.7 -0.8 -10.4 -1 -10.4 -1 -10.6 -1.1 -10.6 -1.1 -11 -1.3 -10.7 -1.3 -10.8 -1.3 -10.8 -1.4 -10.9 -1.4 -10.9 -1.6 -11.3 -1.6 -11.4 -1.8 -10.6 -1.7 -11 -1.8 -11.4 -2 -11.1 -2 -11 -2 -11.1 -2.1 -11.2 -2.2 -11.2 -2.3 55.3 -265 9.2 1.9 9.4 1.8 9.5 1.8 9.5 1.8 9.5 1.7 9.1 1.6 9.6 1.6 9.9 1.6 9.1 1.4 9.2 1.4 9.5 1.3 9.5 1.3 9.5 1.2 9.4 1.2 9.3 1.1 8.9 1 9.2 1 9.1 1 9.1 0.8 8.9 0.8 8.5 0.7 8.8 0.7 8.2 0.6 8.5 0.5 8.3 0.5 8.2 0.4 8 0.4 7.5 0.2 7.8 0.2 7 0.1 7.3 0.1 7.2 0.1 -0.3 0zm0.6 270.7l0 0 -0.3 0 0.3 0zm-4.1 -261.4l270.7 0 0 0 -0.2 12.6 -0.7 12.6 -1.1 12.6 -1.7 12.8 -2.1 12.3 -2.8 12.8 -3.6 13.3 -4.1 12.1 -4.7 12.3 -6.1 13.5 -6.2 11.7 -6.9 11.6 -8.2 11.9 -9 11.6 -9.1 10.2 -9.7 9.7 -11 9.7 -11.2 8.6 -11.5 7.8 -11.6 6.9 -11.7 6.1 -12.2 5.6 -12.6 4.9 -12 4.1 -12.1 3.5 -12.3 3 -12.2 2.3 -11.6 1.8 -12.1 1.5 -12.6 1.1 -12.1 0.5 -11.7 0.2 -0.6 -270.7 4.1 -0.1 3.3 -0.2 2.3 -0.1 2.3 -0.3 2.4 -0.4 1.3 -0.3 0.7 -0.1 0.3 -0.1 0.1 0 -1 0.4 -1.1 0.5 -1.2 0.7 -1.4 0.8 -2 1.4 -2.1 1.6 -2.4 2.2 -1.7 1.6 -1.5 1.7 -2 2.5 -1.6 2.4 -0.9 1.4 -0.6 1.2 -1.1 2.4 -0.2 0.7 0 -0.1 -0.2 0.7 0.1 -0.3 0.2 -1.4 0.2 -1.6 0.2 -2.1 0.1 -2.6 0.1 -3.3 0 0zm101.1 -13.6l0 -270.7 122.9 78.7 1.6 3.6 0.2 0.6 -0.6 -1.4 1.4 3.1 1.6 3.8 1 2.1 1.7 4.2 1.6 4 1.8 4.5 1.7 4.6 1.6 4.1 1.8 5.2 2.1 6 2.1 6.1 2.2 6.7 2.1 6.8 1.8 6.1 2.1 7.3 2 7.4 2 7.5 2 8.2 2 8.8 1.8 8.5 1.7 8.6 1.5 8.8 1.5 9.3 1.3 9.9 1.1 9.3 0.9 9.9 0.8 11 0.4 10.5 0.2 10.4 -270.7 0 -0.1 -3.5 -0.1 -3.5 -0.2 -2.9 -0.4 -3.9 -0.5 -4.4 -0.5 -3.7 -0.7 -4.1 -0.8 -4.5 -0.8 -4.2 -0.8 -4.2 -0.9 -3.8 -1 -4 -1.1 -4.3 -1.1 -4.1 -1.1 -3.8 -1.4 -4.6 -1 -3.5 -1 -3 -1 -3.2 -1 -2.7 -1.1 -3 -1.3 -3.5 -1 -2.6 -0.7 -1.8 -0.7 -1.8 -0.4 -0.9 -0.8 -2.1 0 0.1 0.1 0.2 -1.6 -3.6 -0.2 -0.6 1.3 3.1 122.9 78.7zm0 -270.7l86.7 0 36.3 78.7 -122.9 -78.7zm-710 0l710 0 0 270.7 -710 0 -32.9 -4.1 32.9 -266.6zm0 270.7l-16.6 0 -16.2 -4.1 32.9 4.1zm-257.6 -34.3l0 -270.7 0 0 6.9 0.1 7.1 0.1 7.9 0.2 7.4 0.3 7.6 0.4 7.7 0.4 8.5 0.5 8.2 0.6 8.2 0.6 9 0.8 8 0.7 8.8 0.8 9.8 1 8.9 1.1 8.7 1 9.8 1.2 9.4 1.2 9.5 1.3 9.9 1.4 9.6 1.4 9.7 1.5 9.8 1.6 10.1 1.7 9.8 1.7 9.9 1.8 10.3 2 9.9 2 10 2 9.8 2.1 10 2.3 10.3 2.4 9.8 2.4 -65.7 262.6 -7.5 -1.8 -7.1 -1.7 -7.7 -1.7 -8 -1.7 -7.8 -1.7 -8.1 -1.6 -7.6 -1.5 -8.1 -1.4 -8.2 -1.5 -7.8 -1.3 -8 -1.3 -8.2 -1.3 -8.2 -1.3 -7.6 -1.1 -7.9 -1 -7.9 -1.1 -7.3 -0.8 -8.2 -1 -7.6 -0.8 -6.4 -0.7 -7.3 -0.7 -7.6 -0.7 -6.4 -0.5 -6.7 -0.5 -6.4 -0.5 -5.7 -0.4 -5.9 -0.3 -5.6 -0.2 -5.2 -0.2 -4.2 -0.1 -4.6 -0.1 -4.1 -0.1 0 0zm793.6 3094.6l-270.7 0 0 0 -0.5 -22.4 -1.6 -20.3 -2.4 -18.7 -3 -16.6 -3.8 -14.6 -4.4 -13.2 -4.8 -11.7 -5.2 -10.6 -5.8 -9.7 -6.2 -8.8 -7.2 -8.5 -7.8 -8.1 -8.9 -7.9 -10.3 -7.9 -11.5 -7.8 -13.1 -7.7 -14.7 -7.7 -16.3 -7.4 -17.8 -7.2 -19.6 -6.9 -21.4 -6.7 -22.7 -6.3 -24.4 -6 -26 -5.7 -27.5 -5.4 -29.1 -5.1 -30.3 -4.8 -32 -4.5 -33.3 -4.3 -34.5 -4.1 -35.9 -3.9 -37.2 -3.8 26.2 -269.4 39 3.9 38.2 4.1 37.4 4.4 36.4 4.8 35.5 5 34.9 5.5 33.9 6 33.2 6.4 32.4 7.2 31.7 7.8 31.1 8.7 30.1 9.5 29.6 10.5 28.9 11.6 28.1 12.9 27.2 14.1 26.5 15.7 25.7 17.4 24.3 18.9 23.4 20.8 21.9 22.7 20.2 24.3 18.5 26.1 16.4 27.4 14.4 28.8 12.3 30.1 10.2 31 8.2 32.1 6.1 32.8 4.3 33.5 2.5 34.5 0.8 35.3 0 0zm-896.8 662l0.1 -270.7 -0.1 0 42.9 -0.7 41.3 -2.1 39.5 -3.4 37.7 -4.7 36.2 -5.9 34.6 -7 32.7 -8 31.2 -9 29.6 -9.9 28 -10.7 26.4 -11.4 24.9 -12.2 23.4 -12.8 21.8 -13.3 20.3 -13.8 19.1 -14.5 17.7 -14.8 16.2 -15 14.8 -15.3 13.6 -15.6 12.4 -15.8 11.2 -16 10 -16.1 8.8 -16 7.6 -16.2 6.6 -16.1 5.5 -16.1 4.4 -16.1 3.4 -15.9 2.4 -15.7 1.4 -15.6 0.5 -15.5 270.7 0 -1 31.8 -2.9 31.9 -4.8 31.8 -6.7 31.6 -8.7 31.2 -10.5 31 -12.4 30.5 -14.2 29.9 -16 29.5 -17.8 28.7 -19.6 28.1 -21.3 27.2 -23 26.5 -24.9 25.6 -26.5 24.6 -28.1 23.5 -29.6 22.4 -31.5 21.5 -33 20.2 -34.5 18.9 -36 17.6 -37.5 16.3 -39 14.9 -40.5 13.6 -42 12.1 -43.6 10.6 -44.7 9 -46.3 7.6 -47.9 6 -49.2 4.2 -50.6 2.6 -52.1 0.8 -0.1 0zm-747.8 -513.3l270.7 0 0 0 0.2 16.2 0.7 15.3 1.2 14.2 1.7 13.4 2.1 12.3 2.5 11.4 3 10.6 3.3 9.7 3.6 8.7 4 8.1 4.4 7.6 4.8 7.1 5.6 7 6.4 7 7.5 7 8.5 7 10 7 11.7 7.2 13.6 7.2 15.6 7.2 17.5 7 19.7 6.7 22.1 6.4 24.3 6 26.7 5.5 29.2 4.9 31.5 4.3 34.1 3.6 36.7 2.9 39.1 2.1 41.7 1.3 44.4 0.5 -0.1 270.7 -49.8 -0.5 -47.6 -1.6 -45.6 -2.4 -43.6 -3.5 -41.6 -4.4 -39.9 -5.5 -38.1 -6.5 -36.6 -7.5 -34.8 -8.6 -33.2 -9.7 -32.1 -10.9 -30.5 -12.2 -28.9 -13.4 -27.7 -14.7 -26.2 -16 -24.8 -17.5 -23.2 -18.9 -21.3 -20 -19.7 -21.3 -17.9 -22.5 -16 -23.4 -14.1 -24.1 -12.1 -24.6 -10.4 -25 -8.5 -25 -6.9 -24.9 -5.6 -25.2 -4.2 -25 -3.1 -24.9 -2 -24.8 -1.1 -24.4 -0.4 -24.3 0 0zm570.6 -741.1l-46.4 266.6 100.5 -22.2 -17.1 12.1 -17.1 12.6 -16.9 13.1 -16.9 13.7 -16.9 14.3 -16.9 14.8 -16.6 15 -16.2 15.3 -15.9 15.7 -15.6 16.1 -15.4 16.5 -14.9 16.7 -14.5 16.8 -13.8 16.9 -13.4 17.2 -12.9 17.3 -12.2 17.4 -11.6 17.4 -10.9 17.2 -10 17.1 -9.5 17.3 -8.6 17 -7.8 16.6 -7 16.5 -6.1 16.1 -5.2 15.7 -4.5 15.4 -3.6 14.8 -2.7 14.2 -1.9 13.9 -1.2 13.4 -0.4 12.6 -270.7 0 0.8 -28.3 2.4 -27.9 3.8 -27.6 5.3 -27.5 6.5 -27.1 7.7 -26.5 8.8 -26.2 9.8 -25.9 10.8 -25.5 11.8 -25.2 12.6 -24.7 13.3 -24.3 14.2 -24.1 14.9 -23.8 15.5 -23.3 16.2 -23 16.7 -22.5 17.3 -22.2 17.9 -21.8 18.3 -21.5 18.7 -20.9 19.1 -20.5 19.6 -20.2 20 -19.7 20.3 -19.3 20.5 -18.6 20.6 -18 20.9 -17.6 21.2 -17.2 21.5 -16.6 21.5 -16 21.6 -15.3 100.5 -22.2zm-100.5 22.2l45.6 -31.7 54.9 9.5 -100.5 22.2zm411.1 16.5l-26.2 269.4 -0.3 0 -10.8 -1.1 -10.8 -1.1 -10.6 -1.1 -10.7 -1.1 -11 -1.1 -10.6 -1.1 -10.6 -1.1 -10.5 -1.1 -10.4 -1.1 -10.9 -1.1 -10.8 -1.2 -10.3 -1.2 -10.3 -1.2 -10.7 -1.2 -10.3 -1.3 -10.5 -1.3 -10.2 -1.3 -10.4 -1.3 -10.4 -1.4 -10 -1.3 -10.4 -1.4 -9.9 -1.3 -10.2 -1.4 -10.2 -1.5 -10.1 -1.4 -10.1 -1.5 -9.6 -1.5 -10 -1.5 -10.3 -1.7 -10 -1.6 -9.3 -1.6 -9.8 -1.7 46.4 -266.6 8.5 1.4 9.1 1.5 8.6 1.5 8.4 1.3 8.9 1.4 9.4 1.4 9 1.4 9.1 1.3 9.1 1.3 9.2 1.3 9.7 1.3 9.3 1.3 9.8 1.3 9.5 1.3 9.5 1.1 10 1.3 9.7 1.1 10 1.1 9.7 1.2 10.3 1.1 10.2 1.2 9.8 1.1 9.9 1.1 10.4 1.1 10.4 1.1 10.4 1 10.5 1.1 10.1 1.1 10.6 1.1 10.6 1 10.6 1.1 10.7 1.1 -0.3 0zm-26.2 269.4l-0.3 0 -12.4 -1.3 12.7 1.3zm692.3 -2024.1l-270.7 0 0 0 -0.5 -39.4 -1.7 -37.4 -2.7 -35.8 -3.8 -33.9 -4.7 -32.1 -5.7 -30.5 -6.6 -28.7 -7.4 -27 -8.2 -25.4 -8.9 -23.4 -9.5 -21.9 -10.3 -20.4 -10.9 -19 -11.3 -17.5 -12 -16.2 -12.6 -15.1 -13.1 -13.8 -13.8 -12.9 -14.5 -12 -15.1 -10.9 -16 -10.1 -17.1 -9.4 -18 -8.6 -18.9 -7.7 -20.1 -7 -21.2 -6.1 -22.5 -5.3 -23.6 -4.4 -24.7 -3.5 -26.1 -2.5 -27.2 -1.6 -28.4 -0.5 0 -270.7 38.4 0.7 37.8 2.1 37.1 3.6 36.7 5.1 35.9 6.7 35.2 8.3 34.6 10 33.8 11.7 33 13.5 32.1 15.3 30.9 17.1 30.1 19 28.9 20.9 27.4 22.6 26.1 24.3 24.7 26.1 23.1 27.6 21.6 29.3 20 30.8 18.3 32 16.8 33.5 15.3 34.8 13.7 36.2 12 37.2 10.6 38.4 9.1 39.7 7.6 40.8 6.3 42.3 4.7 43.3 3.5 44.5 2 46 0.7 47.1 0 0zm-725.1 994.3l0.1 -270.7 -0.1 0 29.6 -0.8 28 -2.5 26.4 -4 24.9 -5.4 23.7 -6.9 22.4 -8.2 21.3 -9.4 20.4 -10.8 19.5 -12 18.5 -13.2 18 -14.8 17.4 -16.2 16.6 -17.5 16 -19.1 15.4 -20.6 14.7 -22.1 14.1 -23.8 13.3 -25.2 12.5 -26.7 11.8 -28.3 10.9 -29.6 10.1 -31 9.1 -32.4 8.3 -33.7 7.3 -34.9 6.4 -36.2 5.4 -37.1 4.5 -38.2 3.4 -39.5 2.6 -40.3 1.5 -41.1 0.5 -42 270.7 0 -0.6 48.5 -1.7 48.1 -2.9 47.2 -4.1 46.5 -5.3 46.1 -6.6 45.3 -7.9 44.3 -9.2 43.6 -10.5 42.8 -11.9 41.8 -13.3 41 -14.7 39.9 -16.2 38.9 -17.8 37.8 -19.4 36.7 -21 35.4 -22.7 34.2 -24.4 32.7 -26.2 31.2 -28.1 29.6 -29.7 27.7 -31.5 25.9 -33.5 24 -35.1 21.6 -36.6 19.3 -38.2 16.9 -39.6 14.4 -41 11.9 -42.3 9.2 -43.3 6.6 -44.4 3.9 -45.3 1.3 -0.1 0zm-725 -885.4l270.7 0 0 0 0.2 37.1 0.7 36.4 1.3 35.4 1.8 34.4 2.6 33.6 3.2 32.4 3.9 31.1 4.7 30.1 5.4 28.7 6.3 27.2 7 26.1 7.8 24.6 8.4 23 9.3 21.5 10.1 20.2 10.7 18.7 11.6 17.4 12.3 16.1 13.1 14.8 14.3 14 15.3 12.9 16.8 12.1 18.3 11.3 20.2 10.5 22.2 9.7 24.4 8.6 27 7.8 29.6 6.6 32.2 5.4 35 3.9 37.9 2.5 40.8 0.8 -0.1 270.7 -52.2 -1.1 -50.3 -3.3 -48.4 -5.5 -46.5 -7.8 -44.6 -10 -42.9 -12.3 -41.1 -14.7 -39.2 -17 -37.3 -19.3 -35.1 -21.6 -33 -23.8 -30.7 -25.9 -28.4 -27.7 -26.1 -29.5 -23.7 -30.9 -21.3 -32.1 -19.2 -33.2 -17 -34.1 -15.1 -35.1 -13.3 -35.8 -11.4 -36.3 -9.9 -36.7 -8.5 -37.5 -7.2 -37.8 -6 -38.2 -4.9 -38.8 -3.8 -39 -3 -39.4 -2.2 -39.9 -1.4 -40.1 -0.8 -40.4 -0.2 -40.7 0 0zm742.2 -919.7l0 270.7 0 0 -24.9 0.6 -24.3 1.6 -23.6 2.7 -23.3 3.8 -22.4 4.8 -21.9 6 -21.3 7 -20.5 8 -20 9.1 -19.4 10.1 -18.8 11.3 -18.1 12.3 -17.6 13.5 -17.1 14.8 -16.5 16.1 -15.9 17.4 -15.4 18.8 -14.7 20.2 -14.1 21.8 -13.4 23.4 -12.8 25.2 -12 26.9 -11.2 28.7 -10.3 30.6 -9.3 32.3 -8.2 34.2 -7.2 36.4 -6 38.2 -4.8 40.2 -3.6 42.3 -2.1 44.1 -0.7 46.3 -270.7 0 0.8 -54.9 2.6 -53.4 4.3 -51.6 6 -50 7.7 -48.6 9.2 -46.9 11 -45.4 12.6 -43.9 14.3 -42.2 15.8 -40.6 17.5 -39.1 18.9 -37.3 20.6 -35.8 22.1 -34.1 23.6 -32.4 25 -30.5 26.3 -28.7 27.7 -27 28.9 -25 30 -23.1 31.1 -21.3 32.1 -19.3 32.9 -17.3 33.7 -15.3 34.5 -13.4 35 -11.5 35.5 -9.7 36 -7.8 36.1 -6 36.7 -4.3 36.8 -2.4 37 -0.8 0 0z"/>
  </g>
  <g>
   <path fill="#FEFEFE" d="M18996 6065.8c-475.2,0 -1024.8,171.7 -1024.8,1643 0,1150.7 395.1,1335 938.9,1335 418,0 778.5,-144.1 778.5,-281.5 0,-63.2 -11.4,-148.9 -40.1,-223.4 -177.3,125.9 -429.4,194.6 -687.1,194.6 -406.2,0 -669.8,-137.4 -669.8,-973.2 251.9,-0.2 887.5,-5.8 1368.4,-103.1 40.1,-188.9 57.2,-440.8 57.2,-687 0,-567.2 -223.3,-904.6 -721.3,-904.6zm-28.7 286.1c343.4,0 440.8,223.4 440.8,681.5 0,120 -5.6,246.1 -22.7,383.5 -320.7,80 -858.7,80.2 -1087.9,80.2 40.1,-1013.5 377.9,-1145.1 669.8,-1145.1z"/>
   <path id="1" fill="#FEFEFE" fill-rule="nonzero" d="M18106.5 7708.9l-270.7 0 0 0 1.7 -137.4 4.8 -130.3 7.9 -123.4 11 -116.7 13.9 -110.2 16.8 -104 19.6 -98 22.2 -92.1 24.9 -86.5 27.5 -81.1 30.1 -76 32.6 -70.8 35.1 -66 37.6 -61.2 39.7 -56.3 42 -51.9 44 -47.3 45.9 -42.8 47.5 -38.5 48.8 -34.1 49.9 -30 50.7 -26.1 51.4 -22.3 51.6 -18.7 51.7 -15.6 51.8 -12.5 51.5 -9.8 50.9 -7.5 50.4 -5.3 49.8 -3.6 49 -1.8 48.2 -0.6 0 270.7 -41.4 0.5 -41 1.6 -40.8 2.9 -40.4 4.2 -39.7 5.8 -39.1 7.5 -38.2 9.3 -37.5 11.3 -36.7 13.2 -35.7 15.5 -34.9 17.8 -34.2 20.6 -33.3 23.3 -32.6 26.4 -31.9 29.9 -31.1 33.4 -30.4 37.6 -29.6 42 -28.6 46.7 -27.5 51.8 -26.3 57.2 -25 62.8 -23.3 68.7 -21.6 74.8 -19.6 81.2 -17.5 87.7 -15.2 94.3 -12.7 101.4 -10.3 108.5 -7.5 115.7 -4.5 123.2 -1.6 130.9 0 0zm803.6 1199.7l0 270.7 0 0 -53.7 -0.6 -53.2 -1.9 -52.9 -3.5 -52.2 -5.1 -51.9 -7 -51.4 -9.2 -50.8 -11.5 -50.1 -14.1 -49.4 -16.9 -48.6 -20 -47.3 -23.2 -46.2 -26.6 -44.7 -30.2 -42.9 -33.8 -40.9 -37.4 -38.8 -41.1 -36.6 -44.9 -34.1 -48.4 -31.7 -51.9 -29.3 -55.6 -26.8 -59.4 -24.4 -63 -22.1 -66.8 -19.6 -70.9 -17.4 -74.9 -15.1 -79.2 -12.8 -83.5 -10.4 -88.1 -8.2 -92.9 -5.8 -97.8 -3.5 -102.9 -1.2 -108.1 270.7 0 1.1 102 3.4 96.3 5.4 90.5 7.5 85 9.5 79.6 11.3 74.2 13.1 69 14.8 64 16.4 59 17.8 54.2 19.3 49.7 20.4 45.1 21.6 41 22.5 37 23.5 33.3 24.3 29.8 25.3 26.8 26.2 24 27.3 21.5 28.4 19.2 29.8 17.2 31.4 15.3 32.7 13.5 34.5 11.7 36.3 10.3 37.9 8.5 39.6 7.1 41.3 5.5 43 4.3 44.4 2.9 46 1.7 47.4 0.5 0 0zm643.2 -146.1l270.7 0 0 0 -2.8 34.5 -7.7 32.2 -11.7 29.8 -14.8 26.9 -16.6 23.7 -18.4 21.8 -19.9 19.8 -20.9 18.2 -22.2 17 -23.1 15.8 -24.3 15 -25.5 14.3 -26.7 13.5 -27.5 12.8 -28.6 12.2 -29.8 11.6 -30.9 11.1 -31.8 10.4 -32.7 9.8 -33.7 9.2 -34.7 8.6 -35.4 8 -36.5 7.4 -37.1 6.6 -37.9 6.1 -38.7 5.2 -39.2 4.6 -40 3.8 -40.5 3 -40.8 2.1 -41.5 1.3 -41.9 0.5 0 -270.7 36.1 -0.4 35.8 -1.2 35.5 -1.9 34.9 -2.5 34.2 -3.3 33.7 -3.9 33 -4.5 32.3 -5.1 31.6 -5.7 30.5 -6.2 29.7 -6.7 28.6 -7.1 27.5 -7.6 26.4 -7.9 25.1 -8.2 23.7 -8.5 22.4 -8.8 20.9 -8.9 19.4 -8.9 17.5 -8.9 15.7 -8.8 14 -8.6 11.9 -8.2 9.7 -7.5 7.6 -6.6 5.3 -5.2 3 -3.6 1.3 -1.8 -0.6 1.1 -1.6 4.1 -1.5 6.3 -0.7 8.7 0 0zm173.6 -113l-156.7 -220.7 204.6 61.7 3.3 8.9 3.2 8.8 3.2 9.4 2.8 8.8 2.8 8.8 2.7 9.4 2.6 9 2.3 8.8 2.3 8.8 2.1 8.9 2 8.9 2 8.9 1.8 8.9 1.7 8.8 1.6 8.6 1.4 8.3 1.5 8.8 1.3 8.6 1.3 8.8 1.1 8.6 1 8 1 8.5 0.8 7.9 0.7 7.8 0.7 9 0.5 7.8 0.5 7.6 0.4 8.2 0.3 7.5 0.2 8.1 0.1 7.5 0.1 7.3 -270.7 0 -0.1 -4.7 -0.1 -4.8 -0.1 -4.4 -0.2 -5.1 -0.2 -4.7 -0.4 -5.5 -0.3 -5.6 -0.4 -4.5 -0.6 -5.8 -0.5 -5.9 -0.6 -5.4 -0.7 -6 -0.7 -5.6 -0.8 -5.5 -0.9 -5.7 -0.9 -5.7 -1.1 -6.1 -1.1 -5.9 -1.1 -5.9 -1.2 -5.8 -1.3 -5.8 -1.3 -5.8 -1.4 -5.7 -1.4 -5.7 -1.6 -5.8 -1.5 -5.5 -1.6 -5.1 -1.7 -5.6 -1.8 -5.5 -1.7 -4.9 -1.9 -5.3 -1.9 -5.2 204.6 61.7zm-156.7 -220.7l142 -100.8 62.6 162.5 -204.6 -61.7zm-608.7 440.3l0 -270.7 0 0 22 -0.2 21.7 -0.5 21.7 -0.9 21.8 -1.3 21.8 -1.6 21.5 -2 21.3 -2.3 21.2 -2.7 21.1 -3 21 -3.4 20.9 -3.8 20.6 -4 20.3 -4.4 20.3 -4.7 20.1 -5.1 19.6 -5.3 19.4 -5.6 19.3 -6 19 -6.3 18.6 -6.6 18.3 -6.9 18 -7.2 17.8 -7.6 17.3 -7.6 16.8 -7.9 16.6 -8.3 16 -8.4 15.6 -8.8 15.6 -9.2 14.9 -9.2 14.3 -9.4 14.1 -9.7 156.7 220.7 -19.6 13.5 -20.3 13.3 -20.5 12.6 -20.5 12 -21.2 11.9 -21.6 11.4 -21.8 10.9 -22.4 10.6 -22.5 10 -22.6 9.5 -23 9.2 -23.3 8.8 -23.6 8.3 -23.9 7.9 -24 7.5 -24.4 7.2 -24.6 6.6 -24.6 6.1 -24.7 5.8 -25.2 5.4 -25.3 4.9 -25.2 4.5 -25.6 4.1 -25.6 3.7 -25.9 3.3 -26.1 2.8 -25.9 2.3 -26 2 -26.2 1.6 -26.4 1.1 -26.5 0.7 -26.3 0.2 0 0zm-670 -1243.9l0.2 270.7 135.2 -135.4 0.8 73.6 2.1 69.2 3.6 65.1 4.9 61 6.3 56.9 7.6 53.1 8.7 49.1 9.8 45.3 10.9 41.6 11.7 37.9 12.6 34.5 13.3 31.1 13.9 27.8 14.5 24.9 14.8 22.2 15.2 19.4 15.9 17.4 16.2 15.4 16.9 13.8 17.7 12.3 18.5 11 19.9 10 21 8.9 22.5 7.8 24.1 6.9 25.5 5.8 27.2 4.9 28.6 3.9 30.3 3 31.8 2.1 33.1 1.2 34.5 0.4 0 270.7 -40.8 -0.5 -40.5 -1.4 -40 -2.7 -39.8 -3.8 -39.6 -5.5 -39.1 -7 -38.8 -8.9 -38.4 -11 -37.9 -13.3 -37.1 -15.7 -36.4 -18.2 -35.5 -21.1 -34 -23.9 -32.7 -26.6 -31.1 -29.5 -29.1 -32.2 -27.4 -35.1 -25.2 -37.5 -23.2 -39.9 -21.3 -42.6 -19.3 -45.1 -17.4 -47.6 -15.6 -50.3 -13.8 -52.9 -12.2 -55.9 -10.4 -58.8 -8.8 -61.7 -7.2 -65 -5.5 -68.4 -4 -71.8 -2.4 -75.4 -0.8 -79.1 135.2 -135.4zm-135.2 135.4l0 -135.2 135.2 -0.1 -135.2 135.4zm1371.4 -131.2l264.7 56.3 -105.5 104.5 -47.5 9.2 -48.1 8.6 -48.7 8.1 -49.3 7.6 -49.6 7.1 -50 6.6 -50.1 6.1 -50.3 5.7 -50.3 5.2 -50.3 4.8 -50.3 4.5 -49.8 4 -49.5 3.8 -49.3 3.3 -48.6 3 -47.9 2.7 -47.3 2.4 -46.6 2.2 -45.6 1.8 -44.5 1.7 -43.6 1.4 -42.3 1.2 -41 1.1 -39.6 0.9 -38.2 0.7 -36.6 0.5 -34.8 0.4 -33 0.4 -31.3 0.2 -29.3 0.1 -27 0.1 -24.9 0.1 -0.2 -270.7 24.6 -0.1 26.7 -0.1 28.5 -0.1 30.5 -0.2 32.4 -0.4 34.2 -0.4 35.7 -0.5 37.3 -0.7 38.6 -0.8 40.1 -1.1 41.3 -1.2 42.3 -1.4 43.5 -1.6 44.4 -1.8 45.1 -2.1 46 -2.4 46.6 -2.6 47.2 -2.9 47.4 -3.2 47.9 -3.6 48.1 -3.9 48.1 -4.2 48.2 -4.7 48.1 -5 47.9 -5.4 47.7 -5.8 47.2 -6.2 46.6 -6.6 46 -7.1 45.4 -7.6 44.5 -7.9 43.6 -8.5 -105.5 104.5zm264.7 56.3l-18.5 86.9 -87.1 17.6 105.5 -104.5zm-210.5 -715.2l270.7 0 0 0 -0.1 23.6 -0.1 23.8 -0.3 23.9 -0.4 23.5 -0.5 23.8 -0.6 23.8 -0.7 23.6 -0.8 23.7 -0.9 23.6 -1.1 23.6 -1.1 23.3 -1.3 23.4 -1.4 23.3 -1.5 23 -1.6 23.2 -1.8 23 -1.8 22.5 -2 22.6 -2.1 22.4 -2.2 22.4 -2.4 22 -2.5 21.8 -2.7 21.6 -2.7 21.4 -2.9 21.1 -3 20.9 -3.3 21 -3.4 20.5 -3.5 19.9 -3.7 20 -3.9 19.8 -4 19.3 -264.7 -56.3 3.4 -16.5 3.3 -16.7 3.1 -17.2 3.1 -17.9 3 -18.1 2.8 -18.1 2.7 -18.8 2.7 -19.1 2.5 -19.4 2.4 -19.6 2.3 -20 2.2 -20.2 2.1 -20.3 1.9 -20.7 1.8 -20.9 1.7 -21.2 1.7 -21.3 1.5 -21.3 1.4 -21.8 1.4 -21.8 1.1 -21.8 1.1 -22.2 1 -22.1 0.9 -22.2 0.7 -22.2 0.7 -22.5 0.6 -22.4 0.4 -22.4 0.4 -22.8 0.3 -22.4 0.1 -22.5 0.1 -22.5 0 0zm-585.9 -769.2l0 -270.7 0 0 51.8 1.1 50.4 3.3 49.3 5.7 48 7.9 46.6 10.3 45.3 12.6 44 15 42.5 17.5 40.8 19.7 39.2 22.1 37.6 24.4 35.8 26.6 33.9 28.8 32 30.8 30 32.8 28 34.6 26.1 36.4 24 38 22.1 39.5 20.2 41.1 18.2 42.3 16.5 43.8 14.7 45.2 12.9 46.3 11.3 47.5 9.7 48.8 8.1 50 6.6 51.2 5.1 52.5 3.5 53.6 2.1 54.8 0.7 55.9 -270.7 0 -0.6 -49.1 -1.8 -47.5 -3 -45.9 -4.2 -44.2 -5.5 -42.6 -6.6 -40.9 -7.8 -39.2 -8.9 -37.5 -10 -35.7 -10.9 -33.9 -12.2 -32.1 -13 -30.4 -14.1 -28.5 -15 -27 -15.9 -25.1 -16.9 -23.6 -17.7 -21.9 -18.7 -20.4 -19.7 -19 -20.7 -17.6 -21.8 -16.2 -23 -15 -24.4 -13.7 -25.8 -12.5 -27.2 -11.2 -28.9 -9.8 -30.7 -8.5 -32.4 -7.2 -34.3 -5.7 -36.1 -4.1 -38 -2.5 -40 -0.9 0 0zm547.4 832.3l-270.7 0 0 0 -0.3 -40.3 -0.8 -38.8 -1.4 -37.2 -2 -35.5 -2.6 -33.7 -3.3 -32.3 -3.8 -30.5 -4.5 -28.6 -5 -27.1 -5.6 -25.1 -6.1 -23.5 -6.6 -21.7 -7 -19.7 -7.5 -18.1 -7.9 -16.4 -8.1 -14.7 -8.4 -13.2 -8.6 -11.7 -8.9 -10.4 -9.3 -9.4 -9.7 -8.5 -10.4 -7.8 -11.1 -7 -12.2 -6.6 -13.4 -6 -14.9 -5.4 -16.4 -4.8 -18.2 -4.2 -20 -3.3 -21.9 -2.5 -23.8 -1.6 -25.7 -0.5 0 -270.7 37.3 0.8 36.3 2.4 35.5 4.1 34.6 5.8 33.8 7.6 33 9.7 32 11.7 30.8 13.7 29.7 15.9 28.4 18.1 26.7 20 25.1 21.8 23.4 23.7 21.5 25.2 19.7 26.7 17.8 27.8 16.1 29.1 14.4 30.1 12.9 31.1 11.4 32 10.1 32.9 8.9 33.7 7.6 34.8 6.7 35.6 5.7 36.7 4.7 37.6 3.9 38.5 3.1 39.8 2.3 40.8 1.6 41.9 1 42.9 0.3 44.2 0 0zm-125.3 514.7l-65.6 -262.6 -101.5 114.5 1.5 -12.3 1.5 -12.2 1.4 -11.9 1.3 -12 1.3 -12 1.2 -12 1.1 -11.9 1.1 -11.9 1 -11.7 1 -11.7 0.9 -11.6 0.9 -11.6 0.8 -11.5 0.8 -11.7 0.7 -11.4 0.6 -11.4 0.7 -11.6 0.6 -11.2 0.5 -11.2 0.5 -11.4 0.4 -11.1 0.4 -11 0.4 -11.6 0.4 -10.9 0.2 -10.9 0.2 -11.4 0.2 -10.8 0.1 -10.7 0.1 -11.4 0.1 -11 0.1 -10.6 0 -10.9 270.7 0 0 11.6 -0.1 12 -0.1 11.7 -0.1 11.4 -0.1 12 -0.2 12.2 -0.2 11.4 -0.3 12.2 -0.4 12.3 -0.4 11.6 -0.4 12.3 -0.5 12.4 -0.5 12 -0.6 12.5 -0.6 12.6 -0.7 12.2 -0.7 12.6 -0.8 12.7 -0.8 12.3 -0.9 12.7 -0.9 12.8 -1 12.9 -1.1 12.9 -1.1 12.9 -1.2 12.9 -1.3 13.1 -1.3 13.1 -1.4 13.2 -1.4 13.2 -1.5 13.5 -1.6 13.4 -1.6 13.3 -101.5 114.5zm101.5 -114.5l-11.4 92.1 -90.1 22.5 101.5 -114.5zm-1357.4 58.1l270.5 10.7 -135.2 -140.7 22.4 0 23.9 0 25.4 -0.1 27.1 -0.1 28.4 -0.1 29.6 -0.2 30.8 -0.3 32 -0.4 32.9 -0.5 33.9 -0.7 34.7 -0.8 35.4 -1 36 -1.1 36.4 -1.3 37 -1.6 37.1 -1.7 37.3 -2 37.6 -2.3 37.6 -2.4 37.5 -2.7 37.2 -3 36.8 -3.3 36.6 -3.6 36.1 -3.9 35.4 -4.2 34.6 -4.6 33.8 -4.8 32.7 -5.2 31.7 -5.5 30.5 -5.9 29.2 -6.3 27.6 -6.5 65.6 262.6 -33.8 8 -34.5 7.3 -35.4 6.9 -36.1 6.4 -36.9 5.8 -37.4 5.4 -38 4.9 -38.4 4.6 -38.8 4.2 -39.1 3.9 -39.4 3.5 -39.5 3.1 -39.4 2.9 -39.4 2.6 -39.2 2.3 -39.1 2.1 -38.8 1.8 -38.1 1.6 -37.9 1.4 -37.1 1.1 -36.6 1 -35.7 0.8 -34.7 0.8 -33.9 0.5 -32.8 0.4 -31.5 0.3 -30.3 0.2 -28.9 0.1 -27.4 0.1 -26 0.1 -24.3 0 -22.4 0 -135.2 -140.7zm135.2 140.7l-140.8 0 5.5 -140.7 135.2 140.7zm669.8 -1415.8l0 270.7 0 0 -23.3 0.4 -23 1.1 -22.6 1.9 -22 2.8 -21.4 3.8 -21 4.7 -20.4 5.8 -19.9 6.9 -19.5 8.2 -19.1 9.5 -18.8 11 -18.6 12.6 -18.5 14.6 -18.4 16.7 -18.4 19.1 -18.3 21.8 -18.3 24.7 -18.1 27.8 -17.8 31.2 -17.5 34.9 -17.1 38.6 -16.4 42.6 -15.6 46.7 -14.8 51 -13.8 55.4 -12.9 59.9 -11.6 64.6 -10.4 69.3 -9 74.2 -7.6 79.2 -6.1 84.3 -4.5 89.7 -270.5 -10.7 4.7 -95.3 6.6 -90.6 8.2 -85.8 10 -81.3 11.5 -77 13.2 -72.8 14.7 -68.7 16.2 -64.8 17.8 -61.2 19.3 -57.5 20.8 -54.1 22.3 -50.7 23.8 -47.4 25.3 -44.4 26.8 -41.2 28.2 -38.2 29.6 -35.2 30.9 -32.2 32.1 -29.1 33.2 -26.2 34 -23.3 34.6 -20.3 35.2 -17.6 35.2 -14.8 35.3 -12.4 35.2 -10 34.8 -7.9 34.4 -6 33.8 -4.2 33.1 -2.9 32.5 -1.6 31.7 -0.5 0 0z"/>
  </g>
  <g>
   <path fill="#FEFEFE" d="M16671.6 4978c-320.7,0 -320.7,0.2 -320.7,114.7l0 3893 1374.2 0c51.5,0 80,-11.4 80,-74.4l0.2 -223.2 -1133.7 0 0 -3710z"/>
   <path id="1" fill="#FEFEFE" fill-rule="nonzero" d="M16486.3 5092.6l-270.7 0 0 0 0 -10.8 0.1 -11.1 0.2 -12 0.6 -12.3 1 -12.2 1.7 -14.4 3 -16.6 4.7 -17.6 6.8 -18.4 9.8 -19.7 13.5 -20.1 15.9 -17.9 17 -14.8 19.1 -13 18.5 -9.6 17.6 -7.2 17.8 -5.7 16.6 -4.1 16.1 -3 16.3 -2.4 16.4 -1.8 16.7 -1.5 17.5 -1.1 18.2 -0.9 19.3 -0.7 20.5 -0.5 21.3 -0.3 22.8 -0.2 24.4 -0.1 25.7 -0.1 27.5 -0.1 29.3 0 0 270.7 -29 0 -27.1 0.1 -25.3 0.1 -23.3 0.1 -21.6 0.2 -19.8 0.3 -17.8 0.4 -15.9 0.5 -14.2 0.7 -12.2 0.8 -10.5 0.9 -8.3 0.9 -6 0.9 -4.1 0.8 -1.4 0.4 1.8 -0.7 3.5 -1.4 6.1 -3.3 8.5 -5.7 7.8 -6.9 8 -9.1 7 -10.4 4.5 -9.1 2.5 -6.7 1.4 -5.1 0.5 -2.9 0 0.3 -0.2 3.6 -0.2 4.8 -0.1 6.3 -0.1 8.5 0 10 0 0zm-270.7 3893l0 -3893 270.7 0 0 3893 -135.4 135.4 -135.4 -135.4zm135.4 135.4l-135.4 0 0 -135.4 135.4 135.4zm1374.2 0l-1374.2 0 0 -270.7 1374.2 0 0 0 0 270.7zm-55.4 -209.9l270.7 0.2 0 -0.1 -0.1 10.1 -0.5 10.3 -0.7 8.8 -1.2 10.6 -1.8 10.9 -2.2 10.5 -2.7 10.4 -3.3 10.7 -4.5 11.9 -5.5 12.1 -6.2 11.2 -6 9.4 -8.3 11.4 -10 11.4 -9.2 9.1 -9.1 7.8 -10.4 7.7 -11.7 7.5 -10.2 5.4 -10.3 4.8 -11.7 4.6 -8.8 2.9 -8.8 2.5 -10.2 2.3 -9.8 1.8 -8.5 1.2 -6.6 0.8 -8.5 0.8 -7.3 0.5 -7.3 0.4 -7.3 0.1 -6.5 0.1 0 -270.7 3 -0.1 1.8 0 1.6 -0.1 1.4 0 0 -0.1 1.6 -0.2 -0.6 0.1 -2.1 0.4 -2.9 0.7 -1.8 0.5 -2 0.7 -5.2 2.1 -4.2 1.9 -4.4 2.3 -6.3 4 -5.1 3.8 -4.2 3.6 -4.6 4.5 -5.6 6.4 -4.4 5.9 -2.3 3.6 -2.7 5 -2.4 5.3 -1.8 4.7 -1 2.9 -0.5 2.3 -0.4 1.8 -0.2 1.6 -0.1 0.8 0.1 -1.6 0.1 -0.6 0 -1.5 0 -0.1zm270.9 -222.9l-0.2 223.2 -270.7 -0.2 0.2 -223.2 135.4 -135.2 135.4 135.5zm-135.4 -135.5l135.5 0 -0.1 135.5 -135.4 -135.5zm-1133.7 0l1133.7 0 0 270.7 -1133.7 0 -135.4 -135.4 135.4 -135.4zm0 270.7l-135.4 0 0 -135.4 135.4 135.4zm135.4 -3845.4l0 3710 -270.7 0 0 -3710 135.4 -135.4 135.4 135.4zm-135.4 -135.4l135.4 0 0 135.4 -135.4 -135.4z"/>
  </g>
  <path fill="#FEFEFE" d="M36858.2 8985.6c80.1,6.7 148.8,6.7 188.8,6.7 120.3,0 143,-23.9 131.7,-81.1l-1081.9 -3938.8c-34.5,-11.5 -86.1,-17.1 -137.6,-17.1 -63,0 -103.1,17.1 -108.7,51.5l-1082.1 3973.1c80.2,12.5 160.3,12.5 194.6,12.5 114.5,0 143,-12.3 154.5,-69.7l263.5 -1042 1190.7 0 286.4 1105zm-1127.9 -2456.1c120.3,-446.5 223.4,-916 246.1,-1122 17.4,205.8 126,675.4 240.5,1122.2l274.8 1059.1 -1036.2 0 274.8 -1059.3zm3091.7 2112.7c-126,80 -292.2,114.5 -469.6,114.5 -366.3,-5.8 -618.3,-137.4 -618.3,-1150.7 0,-933.3 326.3,-1259.5 704.2,-1259.5 177.5,-0.2 269,28.7 377.9,114.4l5.8 2181.3zm-5.8 -2450.3c-120.3,-86.1 -269.2,-126 -469.4,-126 -520.9,0 -950.4,469.4 -950.4,1568.6 0,1265.1 423.6,1409.4 927.5,1409.4 337.8,0 624,-75.5 812.9,-172.8l0 -4093.5c-251.7,0 -320.5,0.2 -320.5,154.7l0 1259.5zm1459.8 2553.2c45.9,171.9 86,287.3 143.2,287.3 45.9,0 165.9,-5.8 211.8,-11.4l732.9 -2897.9c-309.1,0 -309.1,0 -326.5,80.1l-223.2 910c-166.1,687.2 -303.5,1517.4 -303.5,1517.4l-5.6 0c0,0 -148.9,-830 -326.5,-1511.4l-246.1 -996.1c-326.3,0 -349.2,0 -320.7,103.1l664.1 2518.9zm2335.8 -2679.2c-475.2,0 -1024.8,171.7 -1024.8,1643 0.2,1150.7 395,1335 939,1335 417.8,0 778.5,-144.1 778.5,-281.5 0,-63.2 -11.5,-148.9 -40.1,-223.4 -177.4,125.9 -429.5,194.7 -687,194.7 -406.4,0 -664.1,-137.4 -669.8,-973.2 251.9,-0.2 887.4,-5.8 1368.2,-103.1 40.1,-188.9 57.2,-440.8 57.2,-687 0.2,-567.2 -223.2,-904.6 -721.4,-904.6zm-28.5 286.1c343.4,0 435,223.4 440.8,681.5 0,120 -5.8,246.1 -23,383.5 -320.5,80 -858.7,80.2 -1087.6,80.2 40.1,-1013.5 377.7,-1145.1 669.8,-1145.1zm1248 2633.6c309.3,0 314.9,0.2 314.9,-74.4l0 -2433.1c171.8,-91.5 435.1,-131.6 601,-131.6 395.1,-0.2 475.2,177.4 475.2,589.6l0 2049.5c314.9,0 320.7,0.2 320.7,-74.4l0 -2061c0,-538.1 -166.1,-784.3 -784.5,-784.3 -320.5,0 -664.1,85.9 -927.3,200.4l0 2719.3zm2559 -830.2c0,520.7 34.5,888.5 509.7,888.5 229,0 463.6,-58.1 463.6,-207.1 0,-63 -11.4,-120.3 -23,-166.1 -125.8,57.2 -211.7,91.7 -372.1,91.7 -251.9,-0.2 -263.2,-263.4 -263.2,-601.3l0 -1757.9 624 0c63,0 68.6,-28.1 68.6,-280.2l-692.6 0 0 -1030.5c-263.5,0 -315.1,0 -315.1,125.9l0 904.6 -349 0c-68.8,0 -74.6,28.7 -74.6,280.5l423.6 -0.4 0 1752.1zm3148.9 -2032.3c-303.3,0 -314.9,0 -314.9,80.1l0.2 2427.4c-171.9,103.2 -400.8,131.8 -526.9,131.8 -446.5,-0.2 -549.6,-171.9 -549.6,-704.2l0 -1935.2c-326.5,0 -320.7,0 -320.7,80.1l0.2 1814.8c0,727.1 171.5,1025.9 841.4,1025.9 286.4,0 618.4,-69.7 870.3,-201.5l0 -2719.3zm652.5 2862.5c309.3,0 320.7,0.2 320.7,-74.4l0 -2381.7c143.2,-108.7 309.3,-160.2 492.4,-160.2 131.6,0 240.5,40.1 320.7,86 28.5,-57.4 45.7,-137.6 45.7,-189.1 0,-120.3 -131.7,-200.4 -412.3,-200.4 -251.9,0 -520.9,85.9 -767.1,251.9l0 2667.9zm2376.1 -2919.8c-475.2,0 -1024.8,171.7 -1024.8,1643 0,1150.7 395.1,1335 938.9,1335 418,0 778.5,-144.1 778.5,-281.5 0.2,-63.2 -11.4,-148.9 -40.1,-223.4 -177.3,125.9 -429.4,194.7 -687,194.7 -406.2,0 -664.1,-137.4 -669.9,-973.2 251.9,-0.2 887.5,-5.8 1368.5,-103.1 40.1,-188.9 57.2,-440.8 57.2,-687 0,-567.2 -223.4,-904.6 -721.4,-904.6zm-28.7 286.1c343.4,0 435.1,223.4 440.7,681.5 0,120 -5.5,246.1 -22.7,383.5 -320.7,80 -858.7,80.2 -1087.9,80.2 40.1,-1013.5 377.9,-1145.1 669.9,-1145.1z"/>
  <polygon fill="#C97A00" points="7442.2,14891.7 8017.3,13806.1 8605.7,12591.8 5995.5,8553.7 6285.9,12593.4 6867.2,13806.1 "/>
  <polygon fill="#00A3E0" points="7449.4,0 6874.4,1085.5 6285.9,2299.9 8903.7,6347.9 8605.7,2298.3 8024.4,1085.5 "/>
  <polygon fill="#8FD400" points="14891.6,7449.5 13806.1,6874.4 12591.7,6285.9 8547.9,8900.5 12593.4,8605.8 13806.1,8024.5 "/>
  <polygon fill="#8C42AD" points="-0,7442.2 1085.5,8017.3 2299.9,8605.8 6378,5965.7 2298.3,6285.9 1085.5,6867.2 "/>
  <polygon fill="#E8DE12" points="11290.2,11056.2 7789.4,9238.5 12522,8881.8 "/>
  <polygon fill="#E0AD12" points="11014.2,11329.2 6848.7,9170.9 8956.1,12500.5 "/>
  <polygon fill="#D12421" points="3838.9,11268.7 5656.6,7767.9 6013.3,12500.5 "/>
  <polygon fill="#B50094" points="3565.9,11056.2 5724.2,6890.6 2394.6,8998.1 "/>
  <polygon fill="#9EA1DB" points="3626.4,3829.5 7127.2,5647.2 2394.6,6003.8 "/>
  <polygon fill="#4F78D6" points="3902.3,3556.5 8067.9,5714.8 5960.5,2385.2 "/>
  <polygon fill="#4ACCD4" points="11077.7,3617 9260.1,7117.8 8903.4,2385.2 "/>
  <polygon fill="#00B394" points="11350.7,3829.5 9192.4,7995 12522,5887.6 "/>
  <path fill="#FEFEFE" fill-rule="nonzero" d="M28549.1 12615.4c189.4,0 186,0 186,-43.9l0 -923.6 493.9 -1400.6c-189.5,0 -192.8,0 -203,33.8l-148.9 446.6c-91.3,257.2 -219.9,683.4 -230.1,754.4 -13.5,-71.1 -138.7,-497.3 -230,-751l-162.4 -483.8c-216.5,0 -219.9,0 -209.8,30.5l504.1 1376.9 0 960.8zm592 -842.5c0,764.6 199.6,876.3 527.8,876.3 362,0 561.6,-270.7 561.6,-879.7 0,-693.5 -175.9,-879.5 -524.3,-879.5 -351.9,0 -565,257.1 -565,882.9zm199.6 13.6c0,-568.4 142.1,-730.8 358.6,-730.8 213.1,0 331.5,121.8 331.5,707.1 0,531.1 -142.1,724 -355.2,724 -213,0 -334.9,-115.1 -334.9,-700.4zm2199 -862.7c-179.3,0 -186,0 -186,47.4l0 1434.4c-101.5,60.9 -236.8,77.8 -311.3,77.8 -263.8,0 -324.8,-101.5 -324.8,-416.1l0 -1143.5c-192.8,0 -189.4,0 -189.4,47.4l0 1072.4c0,429.7 101.5,605.6 497.3,605.6 169.2,0 365.4,-40.6 514.3,-118.4l0 -1607zm385.6 1691.6c182.8,0 189.5,0 189.5,-43.9l0 -1407.3c84.5,-64.3 182.7,-94.7 291,-94.7 77.8,0 142.1,23.7 189.4,50.7 16.9,-33.7 27.1,-81.2 27.1,-111.6 0,-71.1 -77.8,-118.4 -243.6,-118.4 -148.8,0 -307.8,50.7 -453.3,148.8l0 1576.6zm1519 588.7c0,60.9 27.1,77.8 87.9,77.8 30.5,0 67.7,-6.8 98.1,-13.5l0 -740.9c47.4,60.9 159,121.8 304.6,121.8 216.4,0 554.8,-128.6 554.8,-1045.4 0,-554.8 -213.2,-713.8 -558.3,-713.8 -182.7,0 -345.1,47.3 -487.1,135.3l0 2178.7zm186 -2063.8c81.2,-54 179.3,-84.5 291,-84.5 240.2,0 365.3,115.1 365.3,585.3 0,757.8 -263.8,835.6 -402.5,838.9 -94.7,0 -192.9,-50.7 -253.8,-155.6l0 -1184.1zm1082.6 -94.6c0,30.4 6.7,67.6 27.1,108.2 91.3,-40.6 274,-84.5 487.1,-84.5 159,0 267.3,47.3 267.3,267.2l0 297.7c-74.5,-30.4 -186.2,-40.6 -277.4,-40.6 -253.7,0 -504.1,74.5 -504.1,551.5 0,463.5 243.5,507.5 487.1,504.1 236.8,0 382.3,-74.5 460.1,-121.8 10.1,-263.9 16.9,-639.4 16.9,-1025.1l0 -203c0,-304.4 -135.3,-409.3 -406,-409.3 -246.9,0 -463.4,47.3 -531.1,87.9 -16.9,13.6 -27.1,40.6 -27.1,67.7zm781.5 727.3c0,220 -6.8,497.4 -16.9,639.5 -37.2,33.7 -142.1,74.5 -250.4,74.5 -172.6,0 -321.4,-27.1 -321.4,-348.5 0,-358.6 176,-399.2 368.8,-399.2 64.3,0 155.6,10.1 219.9,33.7zm524.3 842.5c182.8,0 189.5,0 189.5,-43.9l0 -1407.3c84.5,-64.3 182.6,-94.7 291,-94.7 77.8,0 142,23.7 189.4,50.7 16.9,-33.7 27.1,-81.2 27.1,-111.6 0,-71.1 -77.8,-118.4 -243.6,-118.4 -148.8,0 -307.8,50.7 -453.3,148.8l0 1576.6zm1086 -490.5c0,307.8 20.3,524.4 301.1,524.4 135.4,0 274,-33.9 274,-121.8 0,-37.2 -6.7,-71.1 -13.5,-98.1 -74.4,33.7 -125.2,54.1 -219.8,54.1 -148.9,0 -155.7,-155.6 -155.7,-355.2l0 -1038.6 368.7 0c37.2,0 40.6,-16.9 40.6,-165.8l-409.3 0 0 -608.9c-155.6,0 -186.1,0 -186.1,74.4l0 534.5 -206.3 0c-40.6,0 -44,16.9 -44,165.8l250.3 0 0 1035.2zm852.5 490.5c182.8,0 186.1,0 186.1,-43.9l0 -1437.9c101.5,-54.1 257.2,-77.8 355.3,-77.8 233.5,0 280.8,104.9 280.8,348.5l0 1211.1c186,0 189.4,0 189.4,-43.9l0 -1218c0,-318 -98.1,-463.4 -463.5,-463.4 -189.4,0 -392.5,50.7 -548.1,118.4l0 1607zm1904.8 -1725.3c-280.8,0 -605.6,101.5 -605.6,970.9 0,680 233.4,788.3 554.9,788.3 246.9,0 460.1,-84.7 460.1,-165.8 0,-37.3 -6.8,-87.9 -23.7,-131.9 -104.9,74.4 -253.7,115 -406,115 -240.2,0 -392.5,-81.2 -395.9,-575.1 148.9,0 524.5,-3.3 808.6,-60.9 23.7,-111.6 33.9,-260.4 33.9,-405.9 0,-334.9 -132,-534.5 -426.3,-534.5zm-16.9 169.1c203.1,0 257.2,132 260.5,402.7 0,71 -3.3,145.4 -13.5,226.6 -189.5,47.5 -507.5,47.5 -642.8,47.5 23.7,-598.9 223.4,-676.7 395.8,-676.7zm737.5 1556.2c182.8,0 189.5,0 189.5,-43.9l0 -1407.3c84.5,-64.3 182.7,-94.7 291,-94.7 77.8,0 142.1,23.7 189.4,50.7 16.9,-33.7 27.1,-81.2 27.1,-111.6 0,-71.1 -77.8,-118.4 -243.6,-118.4 -148.8,0 -307.8,50.7 -453.3,148.8l0 1576.6zm1711.8 -1691.6c-148.8,0 -192.8,0 -192.8,91.3l0 1600.2c189.4,0 192.8,0 192.8,-43.9l0 -1647.6zm-199.6 -571.7c-3.4,111.6 33.8,155.6 101.5,155.6 74.4,0 111.6,-57.4 115,-159 0,-104.8 -27,-152.2 -104.9,-152.2 -74.4,0 -111.6,57.5 -111.6,155.6zm578.5 2263.3c182.8,0 186.1,0 186.1,-43.9l0 -1437.9c101.5,-54.1 257.1,-77.8 355.2,-77.8 233.4,0 280.8,104.9 280.8,348.5l0 1211.1c186,0 189.5,0 189.5,-43.9l0 -1218c0,-318 -98.1,-463.4 -463.5,-463.4 -189.4,0 -392.5,50.7 -548.1,118.4l0 1607zm3109 -842.5c0,764.6 199.6,876.3 527.8,876.3 361.9,0 561.6,-270.7 561.6,-879.7 0,-693.5 -176,-879.5 -524.3,-879.5 -351.9,0 -565,257.1 -565,882.9zm199.6 13.6c0,-568.4 142.1,-730.8 358.6,-730.8 213.1,0 331.5,121.8 331.5,707.1 0,531.1 -142,724 -355.2,724 -213.1,0 -334.9,-115.1 -334.9,-700.4zm1177.2 828.9c182.8,0 189.5,0 189.5,-43.9l0 -1407.3c84.5,-64.3 182.6,-94.7 291,-94.7 77.8,0 142.1,23.7 189.4,50.7 16.9,-33.7 27.1,-81.2 27.1,-111.6 0,-71.1 -77.8,-118.4 -243.6,-118.4 -148.8,0 -307.8,50.7 -453.3,148.8l0 1576.6zm1086 -490.5c0,307.8 20.3,524.4 301.1,524.4 135.3,0 274,-33.9 274,-121.8 0,-37.2 -6.7,-71.1 -13.5,-98.1 -74.5,33.7 -125.3,54.1 -219.9,54.1 -148.9,0 -155.6,-155.6 -155.6,-355.2l0 -1038.6 368.7 0c37.3,0 40.6,-16.9 40.6,-165.8l-409.3 0 0 -608.9c-155.6,0 -186.2,0 -186.2,74.4l0 534.5 -206.3 0c-40.6,0 -44,16.9 -44,165.8l250.3 0 0 1035.2zm1860.7 -1201c-179.3,0 -186,0 -186,47.4l0 1434.4c-101.5,60.9 -236.8,77.8 -311.2,77.8 -263.8,0 -324.8,-101.5 -324.8,-416.1l0 -1143.5c-192.8,0 -189.4,0 -189.4,47.4l0 1072.4c0,429.7 101.5,605.6 497.3,605.6 169.2,0 365.4,-40.6 514.2,-118.4l0 -1607zm923.7 -33.7c-314.6,0 -558.3,189.4 -558.3,612.3 0,216.6 47.4,416.1 213.1,517.6 -115,91.4 -213.1,209.8 -213.1,297.7 -3.4,81.2 84.6,138.7 223.3,179.3 -145.5,101.5 -277.4,260.5 -277.4,426.3 0,175.8 84.5,358.6 534.5,358.6 449.9,0 656.3,-247 656.3,-507.5 0,-267.2 -202.9,-338.3 -453.3,-372.2 -277.4,-33.7 -490.5,-71 -490.5,-138.7 0,-50.7 71.1,-135.4 142.1,-192.9 54.1,16.9 118.4,23.8 192.8,23.8 392.5,0 548.1,-274 548.1,-622.6 0,-206.3 -71.1,-345.1 -186.1,-419.5 64.3,13.5 132,20.3 182.8,20.3 50.7,0 77.8,-23.7 77.8,-74.4 0,-44 -13.6,-71 -20.4,-87.9l-419.5 0c-54.1,-13.5 -118.4,-20.3 -152.2,-20.3zm-6.9 145.4c213.2,0 338.3,121.8 338.3,399.2 0,287.6 -108.2,507.5 -348.4,507.5 -301.1,0 -348.5,-196.2 -348.5,-443.1 0,-324.8 162.4,-463.5 358.6,-463.5zm16.9 1515.6c243.6,23.7 378.9,60.9 378.9,247 0,148.9 -145.5,311.2 -449.9,311.2 -304.5,0 -362,-94.7 -362,-223.2 0,-128.6 121.8,-274 243.6,-358.6 57.5,10.1 121.8,16.9 189.4,23.7zm751 -1505.4c0,30.4 6.7,67.6 27.1,108.2 91.3,-40.6 273.9,-84.5 487.1,-84.5 159,0 267.3,47.3 267.3,267.2l0 297.7c-74.4,-30.4 -186.1,-40.6 -277.4,-40.6 -253.8,0 -504.1,74.5 -504.1,551.5 0,463.5 243.6,507.5 487.2,504.1 236.8,0 382.3,-74.5 460.1,-121.8 10.2,-263.9 16.9,-639.4 16.9,-1025.1l0 -203c0,-304.4 -135.4,-409.3 -406,-409.3 -247,0 -463.5,47.3 -531.1,87.9 -16.9,13.6 -27.1,40.6 -27.1,67.7zm781.5 727.3c0,220 -6.8,497.4 -16.9,639.5 -37.2,33.7 -142,74.5 -250.4,74.5 -172.6,0 -321.3,-27.1 -321.3,-348.5 0,-358.6 175.9,-399.2 368.8,-399.2 64.2,0 155.5,10.1 219.8,33.7zm717.2 -1644.1c-148.8,0 -186,0 -186,91.3l0 2395.2c182.6,0 186,0 186,-43.9l0 -2442.6zm-8677.6 2486.6c182.8,0 182.8,0 182.8,-43.9l0 -957.5 199.6 0c355.2,0 605.6,-209.7 605.6,-723.9 0,-395.9 -165.8,-642.8 -592.1,-642.8l-351.7 0c-33.9,0 -44.1,13.5 -44.1,47.4l0 2320.8zm784.9 -1738.9c0,372.2 -125.2,561.6 -389.1,561.6l-213 0 0 -1021.6 230 0c287.6,0 372.2,199.6 372.2,460.1z"/>
 </g>
</svg>
