<?xml version="1.0" encoding="UTF-8" standalone="no"?>
<svg
   xmlns:dc="http://purl.org/dc/elements/1.1/"
   xmlns:cc="http://creativecommons.org/ns#"
   xmlns:rdf="http://www.w3.org/1999/02/22-rdf-syntax-ns#"
   xmlns:svg="http://www.w3.org/2000/svg"
   xmlns="http://www.w3.org/2000/svg"
   style="clip-rule:evenodd;fill-rule:evenodd;image-rendering:optimizeQuality;shape-rendering:geometricPrecision;text-rendering:geometricPrecision"
   id="svg85"
   viewBox="0 0 14891.6 14891.701"
   version="1.1"
   height="24.975302mm"
   width="24.975134mm"
   xml:space="preserve"><metadata
   id="metadata91"><rdf:RDF><cc:Work
       rdf:about=""><dc:format>image/svg+xml</dc:format><dc:type
         rdf:resource="http://purl.org/dc/dcmitype/StillImage" /><dc:title></dc:title></cc:Work></rdf:RDF></metadata><defs
   id="defs89">
  
  
  
  
  
  
  
  
  
  
  
  
  
  
  
  
  
  
  
  
  
  
  
  
 </defs>
 <polygon
   points="6285.9,12593.4 6867.2,13806.1 7442.2,14891.7 8017.3,13806.1 8605.7,12591.8 5995.5,8553.7 "
   id="polygon58"
   style="fill:#c97a00" /><polygon
   points="8605.7,2298.3 8024.4,1085.5 7449.4,0 6874.4,1085.5 6285.9,2299.9 8903.7,6347.9 "
   id="polygon60"
   style="fill:#00a3e0" /><polygon
   points="12593.4,8605.8 13806.1,8024.5 14891.6,7449.5 13806.1,6874.4 12591.7,6285.9 8547.9,8900.5 "
   id="polygon62"
   style="fill:#8fd400" /><polygon
   points="2298.3,6285.9 1085.5,6867.2 0,7442.2 1085.5,8017.3 2299.9,8605.8 6378,5965.7 "
   id="polygon64"
   style="fill:#8c42ad" /><polygon
   points="7789.4,9238.5 12522,8881.8 11290.2,11056.2 "
   id="polygon66"
   style="fill:#e8de12" /><polygon
   points="6848.7,9170.9 8956.1,12500.5 11014.2,11329.2 "
   id="polygon68"
   style="fill:#e0ad12" /><polygon
   points="5656.6,7767.9 6013.3,12500.5 3838.9,11268.7 "
   id="polygon70"
   style="fill:#d12421" /><polygon
   points="5724.2,6890.6 2394.6,8998.1 3565.9,11056.2 "
   id="polygon72"
   style="fill:#b50094" /><polygon
   points="7127.2,5647.2 2394.6,6003.8 3626.4,3829.5 "
   id="polygon74"
   style="fill:#9ea1db" /><polygon
   points="8067.9,5714.8 5960.5,2385.2 3902.3,3556.5 "
   id="polygon76"
   style="fill:#4f78d6" /><polygon
   points="9260.1,7117.8 8903.4,2385.2 11077.7,3617 "
   id="polygon78"
   style="fill:#4accd4" /><polygon
   points="9192.4,7995 12522,5887.6 11350.7,3829.5 "
   id="polygon80"
   style="fill:#00b394" />
</svg>